<svg width="297" height="87" viewBox="0 0 297 87" fill="none" xmlns="http://www.w3.org/2000/svg">
<path d="M95.2636 73.2722C100.714 73.2722 105.132 68.8378 105.132 63.3677C105.132 57.8977 100.714 53.4633 95.2636 53.4633C89.8135 53.4633 85.3953 57.8977 85.3953 63.3677C85.3953 68.8378 89.8135 73.2722 95.2636 73.2722Z" fill="url(#paint0_radial_8565_78397)"/>
<path d="M97.2614 65.3716H101.924V61.3621H97.2614V56.682H93.2651V61.3621H88.6021V65.3716H93.2622V70.0532H97.2585V65.3716H97.2614Z" fill="white"/>
<path d="M115.223 72.9578L110.377 68.0938C110.143 67.8585 110.065 67.6232 110.065 67.3099V66.2906C110.065 66.0156 110.26 65.82 110.534 65.82H113.387C113.661 65.82 113.856 66.0156 113.856 66.2906V68.2909C113.856 69.0366 114.285 69.4676 115.028 69.4676H121.907L124.331 66.9966V66.526C124.331 65.7803 123.902 65.389 123.159 65.389H116.163C115.811 65.389 115.616 65.3111 115.382 65.0757L110.535 60.2118C110.261 59.9367 110.184 59.7411 110.184 59.4278V59.3499C110.184 59.0748 110.261 58.9189 110.535 58.6439L115.382 53.7799C115.616 53.5446 115.811 53.4666 116.163 53.4666H121.752C122.104 53.4666 122.299 53.5446 122.533 53.7799L127.379 58.6439C127.653 58.9189 127.731 59.1145 127.731 59.4278V60.4471C127.731 60.7221 127.536 60.9177 127.262 60.9177H124.409C124.135 60.9177 123.94 60.7221 123.94 60.4471V58.4468C123.94 57.7011 123.51 57.2701 122.767 57.2701H115.147C114.404 57.2701 113.975 57.7011 113.975 58.4468V60.4074C113.975 61.1531 114.404 61.584 115.147 61.584H122.143C122.495 61.584 122.69 61.662 122.924 61.8973L127.771 66.7613C128.045 67.0363 128.122 67.2319 128.122 67.5452V67.5849C128.122 67.8203 128.045 67.9776 127.81 68.213L123.081 72.9593C122.847 73.1946 122.612 73.2726 122.3 73.2726H116.007C115.695 73.2726 115.461 73.1946 115.226 72.9593L115.223 72.9578Z" fill="url(#paint1_radial_8565_78397)"/>
<path d="M156.556 53.46H153.703C153.428 53.46 153.234 53.6556 153.234 53.9307V65.3457L149.208 69.4639H147.37C146.627 69.4639 146.198 69.033 146.198 68.2873V66.4296C146.198 66.4208 146.198 66.4135 146.198 66.4046V53.9307C146.198 53.6556 146.003 53.46 145.729 53.46H142.874C142.6 53.46 142.405 53.6556 142.405 53.9307V65.3471L138.381 69.4654H136.544C135.801 69.4654 135.371 69.0344 135.371 68.2887V53.9322C135.371 53.6571 135.176 53.4615 134.902 53.4615H132.049C131.775 53.4615 131.58 53.6571 131.58 53.9322V67.3077C131.58 67.621 131.658 67.8563 131.892 68.0917L136.738 72.9556C136.973 73.191 137.207 73.2689 137.52 73.2689H139.318C139.63 73.2689 139.864 73.191 140.099 72.9556L143.831 69.2095L147.564 72.9556C147.798 73.191 148.033 73.2689 148.345 73.2689H150.143C150.455 73.2689 150.69 73.191 150.924 72.9556L156.669 67.1901C156.903 66.9547 157.02 66.7591 157.02 66.4061V53.9322C157.02 53.6571 156.825 53.4615 156.551 53.4615L156.556 53.46Z" fill="url(#paint2_radial_8565_78397)"/>
<path d="M166.603 53.1533C166.835 53.3857 167.028 53.4637 167.374 53.4637H167.914C168.169 53.4637 168.377 53.2563 168.377 52.9989V50.1735C168.377 49.9175 168.17 49.7087 167.914 49.7087H164.008C163.699 49.7087 163.544 50.0837 163.763 50.3029L166.603 53.1533Z" fill="url(#paint3_radial_8565_78397)"/>
<path d="M170.66 69.4661H169.096C168.353 69.4661 167.924 69.0351 167.924 68.2894V59.4249C167.924 59.1116 167.846 58.9145 167.572 58.6409L162.726 53.7769C162.491 53.5416 162.296 53.4637 161.945 53.4637H161.398C161.124 53.4637 160.929 53.6593 160.929 53.9343V56.798C160.929 57.073 161.124 57.2686 161.398 57.2686H162.962C163.705 57.2686 164.134 57.6996 164.134 58.4453V67.3099C164.134 67.6232 164.212 67.8202 164.486 68.0938L165.853 69.4661H161.398C161.124 69.4661 160.929 69.6617 160.929 69.9367V72.8004C160.929 73.0755 161.124 73.2711 161.398 73.2711H170.661C170.935 73.2711 171.13 73.0755 171.13 72.8004V69.9367C171.13 69.6617 170.935 69.4661 170.661 69.4661H170.66Z" fill="url(#paint4_radial_8565_78397)"/>
<path d="M178.498 72.9578L173.651 68.0938C173.417 67.8584 173.339 67.6231 173.339 67.3098V66.2906C173.339 66.0155 173.534 65.8199 173.808 65.8199H176.661C176.935 65.8199 177.13 66.0155 177.13 66.2906V68.2909C177.13 69.0366 177.56 69.4675 178.303 69.4675H185.181L187.605 66.9966V66.5259C187.605 65.7802 187.176 65.389 186.433 65.389H179.437C179.085 65.389 178.89 65.311 178.656 65.0757L173.81 60.2117C173.535 59.9367 173.458 59.741 173.458 59.4278V59.3498C173.458 59.0748 173.535 58.9189 173.81 58.6438L178.656 53.7798C178.89 53.5445 179.085 53.4666 179.437 53.4666H185.026C185.378 53.4666 185.573 53.5445 185.807 53.7798L190.653 58.6438C190.927 58.9189 191.005 59.1145 191.005 59.4278V60.447C191.005 60.7221 190.81 60.9177 190.536 60.9177H187.683C187.409 60.9177 187.214 60.7221 187.214 60.447V58.4467C187.214 57.701 186.785 57.2701 186.042 57.2701H178.421C177.678 57.2701 177.249 57.701 177.249 58.4467V60.4073C177.249 61.153 177.678 61.584 178.421 61.584H185.417C185.769 61.584 185.964 61.6619 186.198 61.8972L191.045 66.7612C191.319 67.0363 191.396 67.2319 191.396 67.5452V67.5849C191.396 67.8202 191.319 67.9776 191.084 68.2129L186.355 72.9592C186.121 73.1946 185.886 73.2725 185.574 73.2725H179.282C178.969 73.2725 178.735 73.1946 178.5 72.9592L178.498 72.9578Z" fill="url(#paint5_radial_8565_78397)"/>
<path d="M198.702 72.9578L193.856 68.0938C193.622 67.8584 193.544 67.6231 193.544 67.3098V66.2906C193.544 66.0155 193.739 65.8199 194.013 65.8199H196.866C197.14 65.8199 197.335 66.0155 197.335 66.2906V68.2909C197.335 69.0366 197.764 69.4675 198.507 69.4675H205.386L207.81 66.9966V66.5259C207.81 65.7802 207.381 65.389 206.638 65.389H199.642C199.29 65.389 199.095 65.311 198.861 65.0757L194.014 60.2117C193.74 59.9367 193.663 59.741 193.663 59.4278V59.3498C193.663 59.0748 193.74 58.9189 194.014 58.6438L198.861 53.7798C199.095 53.5445 199.29 53.4666 199.642 53.4666H205.231C205.583 53.4666 205.778 53.5445 206.012 53.7798L210.858 58.6438C211.132 58.9189 211.21 59.1145 211.21 59.4278V60.447C211.21 60.7221 211.015 60.9177 210.741 60.9177H207.888C207.614 60.9177 207.419 60.7221 207.419 60.447V58.4467C207.419 57.701 206.989 57.2701 206.246 57.2701H198.626C197.883 57.2701 197.454 57.701 197.454 58.4467V60.4073C197.454 61.153 197.883 61.584 198.626 61.584H205.622C205.974 61.584 206.169 61.6619 206.403 61.8972L211.25 66.7612C211.524 67.0363 211.601 67.2319 211.601 67.5452V67.5849C211.601 67.8202 211.524 67.9776 211.289 68.2129L206.56 72.9592C206.326 73.1946 206.091 73.2725 205.779 73.2725H199.486C199.174 73.2725 198.94 73.1946 198.705 72.9592L198.702 72.9578Z" fill="url(#paint6_radial_8565_78397)"/>
<path d="M282.682 22.632C281.918 21.8275 272.539 14.7794 271.474 14.0013C271.141 13.7586 270.356 13.7218 269.642 13.7248C268.93 13.7204 268.143 13.7586 267.81 14.0013C266.745 14.7794 257.366 21.8275 256.603 22.632C256.337 22.9115 255.865 23.3454 255.983 24.0455C256.025 24.297 256.61 24.9706 257.231 25.6898C257.939 26.5091 258.736 27.3666 259.535 27.3666H263.141C264.151 27.3474 265.054 26.8518 265.976 26.4973C265.995 26.515 266.014 26.5356 266.033 26.5532C265.669 26.8238 265.325 27.0959 264.962 27.3666C263.068 28.805 261.058 30.3538 260.776 30.6509C260.596 30.8406 260.275 31.1363 260.354 31.6128C260.383 31.7834 260.781 32.2423 261.203 32.7321C261.685 33.2895 262.226 33.872 262.769 33.872H276.514C277.057 33.872 277.598 33.2895 278.08 32.7321C278.504 32.2423 278.901 31.7849 278.929 31.6128C279.008 31.1363 278.687 30.8421 278.507 30.6509C278.225 30.3538 276.215 28.805 274.321 27.3666C273.958 27.0959 273.614 26.8238 273.25 26.5532C273.269 26.5341 273.287 26.515 273.306 26.4973C274.226 26.8518 275.13 27.3474 276.14 27.3666H279.746C280.547 27.3666 281.342 26.5091 282.05 25.6898C282.672 24.9706 283.256 24.2955 283.299 24.0455C283.416 23.3454 282.944 22.9115 282.679 22.632H282.682Z" fill="url(#paint7_radial_8565_78397)"/>
<path d="M270.343 36.0902C270.217 35.9976 269.917 35.9828 269.646 35.9843C269.374 35.9843 269.074 35.9976 268.948 36.0902C268.542 36.3858 264.971 39.0701 264.681 39.376C264.58 39.4819 264.399 39.6481 264.445 39.9143C264.461 40.0099 264.684 40.2673 264.92 40.5409C265.189 40.8527 265.493 41.1792 265.797 41.1792H273.494C273.799 41.1792 274.102 40.8527 274.372 40.5409C274.609 40.2673 274.832 40.0099 274.846 39.9143C274.892 39.6481 274.712 39.4819 274.611 39.376C274.32 39.0701 270.749 36.3858 270.343 36.0902Z" fill="url(#paint8_radial_8565_78397)"/>
<path d="M18.714 40.8618L13.9865 36.1154C13.752 35.8801 13.6743 35.7227 13.6743 35.4874V35.4477C13.6743 35.1344 13.752 34.9373 14.026 34.6638L18.8708 29.7998C19.1053 29.5645 19.3002 29.4865 19.6519 29.4865H26.6465C27.3895 29.4865 27.8188 29.0555 27.8188 28.3098V26.3493C27.8188 25.6036 27.3895 25.1726 26.6465 25.1726H15.3156C15.0416 25.1726 14.8467 24.977 14.8467 24.7019V21.8383C14.8467 21.5632 15.0416 21.3676 15.3156 21.3676H25.6309C25.9826 21.3676 26.1775 21.4456 26.412 21.6809L31.2568 26.5449C31.5308 26.8199 31.6085 26.9758 31.6085 27.2509V27.3288C31.6085 27.6421 31.5308 27.8392 31.2568 28.1128L26.412 32.9767C26.1775 33.2121 25.9826 33.29 25.6309 33.29H18.6363C17.8933 33.29 17.464 33.6827 17.464 34.427V34.8976L19.8864 37.3686H29.9672C30.2412 37.3686 30.4361 37.5642 30.4361 37.8392V40.7029C30.4361 40.9779 30.2412 41.1736 29.9672 41.1736H19.4966C19.1844 41.1736 18.9499 41.0956 18.7155 40.8603L18.714 40.8618Z" fill="url(#paint9_radial_8565_78397)"/>
<path d="M39.538 40.8636L34.6932 35.9996C34.4588 35.7643 34.3811 35.529 34.3811 35.2157V27.3321C34.3811 27.0189 34.4588 26.7835 34.6932 26.5482L39.538 21.6842C39.7725 21.4489 40.007 21.3709 40.3191 21.3709H47.0001C47.3122 21.3709 47.5467 21.4489 47.7812 21.6842L52.626 26.5482C52.8604 26.7835 52.9381 26.9791 52.9381 27.3321V35.098C52.9381 35.451 52.8209 35.6466 52.5864 35.882L47.6244 40.8636C47.3899 41.0989 47.1554 41.1769 46.8433 41.1769H40.3176C40.0055 41.1769 39.771 41.0989 39.5366 40.8636H39.538ZM45.9069 37.3719L49.1499 34.0376V26.3496C49.1499 25.6039 48.7205 25.173 47.9776 25.173H39.3431C38.6001 25.173 38.1708 25.6039 38.1708 26.3496V36.1938C38.1708 36.9395 38.6001 37.3704 39.3431 37.3704H45.9069V37.3719Z" fill="url(#paint10_radial_8565_78397)"/>
<path d="M57.8254 40.7044V21.8383C57.8254 21.5633 58.0203 21.3677 58.2944 21.3677H61.1462C61.4202 21.3677 61.6151 21.5633 61.6151 21.8383V40.7044C61.6151 40.9795 61.4202 41.1751 61.1462 41.1751H58.2944C58.0203 41.1751 57.8254 40.9795 57.8254 40.7044ZM72.0081 40.7044V26.3493C72.0081 25.6036 71.5787 25.1727 70.8357 25.1727H62.8651C62.2394 25.1727 62.0049 24.5843 62.4739 24.1137L64.8962 21.6824C65.1307 21.4471 65.3652 21.3691 65.6773 21.3691H69.8583C70.1704 21.3691 70.4049 21.4471 70.6393 21.6824L75.4841 26.5464C75.7186 26.7817 75.7963 27.0171 75.7963 27.3303V40.7044C75.7963 40.9795 75.6014 41.1751 75.3273 41.1751H72.4756C72.2015 41.1751 72.0066 40.9795 72.0066 40.7044H72.0081Z" fill="url(#paint11_radial_8565_78397)"/>
<path d="M99.0511 14.1901V40.7044C99.0511 40.9794 98.8562 41.175 98.5822 41.175H95.7304C95.4564 41.175 95.2615 40.9794 95.2615 40.7044V26.2713C95.2615 25.3697 94.8702 25.1726 94.0891 25.1726H85.4547C84.7117 25.1726 84.2823 25.6036 84.2823 26.3493V36.1934C84.2823 36.9391 84.7117 37.3701 85.4547 37.3701H94.0115C94.6372 37.3701 94.8717 37.9584 94.4027 38.429L91.9803 40.8603C91.7459 41.0956 91.5114 41.1736 91.1993 41.1736H86.4322C86.12 41.1736 85.8855 41.0956 85.6511 40.8603L80.8063 35.9963C80.5718 35.761 80.4941 35.5654 80.4941 35.2124V27.3288C80.4941 26.9758 80.5718 26.7802 80.8063 26.5449L85.6511 21.6809C85.8855 21.4456 86.12 21.3676 86.4322 21.3676H92.2925C92.6442 21.3676 92.8391 21.4456 93.0736 21.6809L95.2615 23.8768V14.1886C95.2615 13.9135 95.4564 13.7179 95.7304 13.7179H98.5822C98.8562 13.7179 99.0511 13.9135 99.0511 14.1886V14.1901Z" fill="url(#paint12_radial_8565_78397)"/>
<path d="M122.099 27.3318V40.7059C122.099 40.981 121.904 41.1766 121.63 41.1766H118.778C118.504 41.1766 118.309 40.981 118.309 40.7059V33.9593C118.309 33.0577 117.918 32.8606 117.137 32.8606H108.306C107.563 32.8606 107.133 33.2915 107.133 34.0372V36.1949C107.133 36.9406 107.563 37.3716 108.306 37.3716H117.057C117.683 37.3716 117.918 37.9599 117.449 38.4306L115.026 40.8618C114.792 41.0971 114.557 41.1751 114.245 41.1751H109.283C108.971 41.1751 108.737 41.0971 108.502 40.8618L103.657 35.9978C103.423 35.7625 103.345 35.5669 103.345 35.2521V34.9389C103.345 34.7035 103.423 34.5079 103.697 34.2329L108.542 29.3689C108.776 29.1336 108.971 29.0556 109.323 29.0556H115.34C115.692 29.0556 115.887 29.1336 116.121 29.3689L118.309 31.5648V26.3478C118.309 25.6021 117.88 25.1712 117.137 25.1712H108.697C107.954 25.1712 107.525 25.6021 107.525 26.3478V28.3481C107.525 28.6232 107.33 28.8188 107.056 28.8188H104.204C103.93 28.8188 103.735 28.6232 103.735 28.3481V27.3289C103.735 27.0156 103.813 26.8185 104.087 26.5449L108.932 21.681C109.166 21.4456 109.361 21.3677 109.713 21.3677H116.12C116.471 21.3677 116.666 21.4456 116.901 21.681L121.745 26.5449C122.019 26.82 122.097 27.0156 122.097 27.3289L122.099 27.3318Z" fill="url(#paint13_radial_8565_78397)"/>
<path d="M132.103 40.8636L127.141 35.882C126.907 35.6466 126.79 35.451 126.79 35.098V27.3321C126.79 26.9791 126.867 26.7835 127.102 26.5482L131.946 21.6842C132.181 21.4489 132.415 21.3709 132.728 21.3709H138.745C138.979 21.3709 139.136 21.4107 139.331 21.6063L144.136 26.3526C144.293 26.51 144.371 26.7056 144.371 26.9409V28.3132C144.371 28.5882 144.176 28.7838 143.902 28.7838L141.05 28.8235C140.776 28.8235 140.581 28.6279 140.581 28.3529V25.6069C140.581 25.3318 140.386 25.1362 140.112 25.1362L131.75 25.1759C131.007 25.1759 130.578 25.6069 130.578 26.3526V34.0405L133.821 37.3748H140.112C140.386 37.3748 140.581 37.1792 140.581 36.9042V34.0802C140.581 33.8052 140.776 33.6096 141.05 33.6096H143.902C144.176 33.6096 144.371 33.8052 144.371 34.0802V35.5319C144.371 35.7672 144.293 35.9629 144.136 36.1202L139.331 40.9445C139.136 41.1401 138.979 41.1798 138.745 41.1798H132.884C132.572 41.1798 132.338 41.1019 132.103 40.8666V40.8636Z" fill="url(#paint14_radial_8565_78397)"/>
<path d="M148.67 40.7044V21.8383C148.67 21.5633 148.865 21.3677 149.139 21.3677H151.99C152.264 21.3677 152.459 21.5633 152.459 21.8383V40.7044C152.459 40.9795 152.264 41.1751 151.99 41.1751H149.139C148.865 41.1751 148.67 40.9795 148.67 40.7044ZM160.157 31.0956V26.3493C160.157 25.6036 159.728 25.1727 158.985 25.1727H153.711C153.085 25.1727 152.851 24.5843 153.32 24.1137L155.742 21.6824C155.976 21.4471 156.211 21.3691 156.523 21.3691H158.008C158.32 21.3691 158.554 21.4471 158.789 21.6824L163.633 26.5464C163.868 26.7817 163.946 27.0171 163.946 27.3303V31.0956C163.946 31.3707 163.751 31.5663 163.477 31.5663H160.625C160.351 31.5663 160.156 31.3707 160.156 31.0956H160.157Z" fill="url(#paint15_radial_8565_78397)"/>
<path d="M172.859 48.7075L168.014 43.8435C167.74 43.5684 167.662 43.3728 167.662 43.0595V42.0403C167.662 41.7652 167.857 41.5696 168.131 41.5696H170.983C171.257 41.5696 171.452 41.7652 171.452 42.0403V44.0406C171.452 44.7863 171.881 45.2172 172.624 45.2172H180.283C181.026 45.2172 181.455 44.7863 181.455 44.0406V21.8416C181.455 21.5666 181.65 21.3709 181.924 21.3709H184.776C185.05 21.3709 185.245 21.5666 185.245 21.8416V43.061C185.245 43.3743 185.167 43.5714 184.893 43.8449L180.048 48.7089C179.814 48.9443 179.619 49.0222 179.267 49.0222H173.641C173.29 49.0222 173.095 48.9443 172.86 48.7089L172.859 48.7075ZM172.821 40.8636L167.976 35.9996C167.741 35.7643 167.664 35.529 167.664 35.2157V21.8416C167.664 21.5666 167.859 21.3709 168.133 21.3709H170.985C171.259 21.3709 171.453 21.5666 171.453 21.8416V36.1967C171.453 36.9424 171.883 37.3734 172.626 37.3734H180.167C180.793 37.3734 181.027 37.9617 180.558 38.4324L178.136 40.8636C177.901 41.0989 177.667 41.1769 177.355 41.1769H173.603C173.291 41.1769 173.057 41.0989 172.822 40.8636H172.821Z" fill="url(#paint16_radial_8565_78397)"/>
<path d="M209.663 27.3289V35.2124C209.663 35.5654 209.586 35.761 209.351 35.9964L204.507 40.8603C204.272 41.0957 204.038 41.1736 203.725 41.1736H197.865C197.513 41.1736 197.318 41.0957 197.084 40.8603L194.896 38.6644V48.5483C194.896 48.8233 194.701 49.0189 194.427 49.0189H191.575C191.301 49.0189 191.106 48.8233 191.106 48.5483V21.8383C191.106 21.5633 191.301 21.3677 191.575 21.3677H194.427C194.701 21.3677 194.896 21.5633 194.896 21.8383V36.2714C194.896 37.173 195.286 37.3701 196.068 37.3701H204.703C205.446 37.3701 205.875 36.9392 205.875 36.1935V26.3493C205.875 25.6036 205.446 25.1727 204.703 25.1727H196.146C195.52 25.1727 195.286 24.5843 195.755 24.1137L198.177 21.6824C198.412 21.4471 198.646 21.3691 198.958 21.3691H203.725C204.038 21.3691 204.272 21.4471 204.507 21.6824L209.351 26.5464C209.586 26.7817 209.663 26.9774 209.663 27.3303V27.3289Z" fill="url(#paint17_radial_8565_78397)"/>
<path d="M228.456 35.8785L223.534 40.8602C223.299 41.0955 223.104 41.1735 222.753 41.1735H221.191C220.839 41.1735 220.644 41.0955 220.409 40.8602L215.565 35.9962C215.291 35.7212 215.213 35.5255 215.213 35.2123V25.171H212.673C212.399 25.171 212.204 24.9754 212.204 24.7004V21.8367C212.204 21.5617 212.399 21.366 212.673 21.366H215.213V16.8551C215.213 16.58 215.408 16.3844 215.682 16.3844H218.534C218.808 16.3844 219.003 16.58 219.003 16.8551V36.1918C219.003 36.9375 219.432 37.3685 220.175 37.3685H221.777L225.84 33.2899C226.035 33.0943 226.309 33.0943 226.504 33.2899L228.458 35.2123C228.653 35.4079 228.653 35.6829 228.458 35.8785H228.456ZM219.861 24.112L222.284 21.6808C222.518 21.4455 222.753 21.3675 223.065 21.3675H227.637C227.911 21.3675 228.106 21.5631 228.106 21.8382V24.7018C228.106 24.9769 227.911 25.1725 227.637 25.1725H220.253C219.627 25.1725 219.392 24.5842 219.863 24.1135L219.861 24.112Z" fill="url(#paint18_radial_8565_78397)"/>
<path d="M235.728 40.8636L230.883 35.9996C230.649 35.7643 230.571 35.529 230.571 35.2157V27.3321C230.571 27.0189 230.649 26.7835 230.883 26.5482L235.728 21.6842C235.963 21.4489 236.197 21.3709 236.509 21.3709H243.19C243.502 21.3709 243.737 21.4489 243.971 21.6842L248.816 26.5482C249.051 26.7835 249.128 26.9791 249.128 27.3321V35.098C249.128 35.451 249.011 35.6466 248.777 35.882L243.815 40.8636C243.58 41.0989 243.346 41.1769 243.033 41.1769H236.508C236.196 41.1769 235.961 41.0989 235.727 40.8636H235.728ZM242.097 37.3719L245.34 34.0376V26.3496C245.34 25.6039 244.911 25.173 244.168 25.173H235.533C234.79 25.173 234.361 25.6039 234.361 26.3496V36.1938C234.361 36.9395 234.79 37.3704 235.533 37.3704H242.097V37.3719Z" fill="url(#paint19_radial_8565_78397)"/>
<defs>
<radialGradient id="paint0_radial_8565_78397" cx="0" cy="0" r="1" gradientUnits="userSpaceOnUse" gradientTransform="translate(95.2636 63.3677) scale(9.86835 9.90445)">
<stop stop-color="#F24477"/>
<stop offset="1" stop-color="#C8005B"/>
</radialGradient>
<radialGradient id="paint1_radial_8565_78397" cx="0" cy="0" r="1" gradientUnits="userSpaceOnUse" gradientTransform="translate(163 52.8047) scale(51.0548 51.2416)">
<stop stop-color="#F24477"/>
<stop offset="1" stop-color="#C8005B"/>
</radialGradient>
<radialGradient id="paint2_radial_8565_78397" cx="0" cy="0" r="1" gradientUnits="userSpaceOnUse" gradientTransform="translate(161.339 52.8026) scale(50.9508 51.1372)">
<stop stop-color="#F24477"/>
<stop offset="1" stop-color="#C8005B"/>
</radialGradient>
<radialGradient id="paint3_radial_8565_78397" cx="0" cy="0" r="1" gradientUnits="userSpaceOnUse" gradientTransform="translate(163.911 50.425) scale(11.942 11.9856)">
<stop stop-color="#F24477"/>
<stop offset="1" stop-color="#C8005B"/>
</radialGradient>
<radialGradient id="paint4_radial_8565_78397" cx="0" cy="0" r="1" gradientUnits="userSpaceOnUse" gradientTransform="translate(161.47 57.2466) scale(41.3111 41.4622)">
<stop stop-color="#F24477"/>
<stop offset="1" stop-color="#C8005B"/>
</radialGradient>
<radialGradient id="paint5_radial_8565_78397" cx="0" cy="0" r="1" gradientUnits="userSpaceOnUse" gradientTransform="translate(160.654 52.8047) scale(51.0548 51.2416)">
<stop stop-color="#F24477"/>
<stop offset="1" stop-color="#C8005B"/>
</radialGradient>
<radialGradient id="paint6_radial_8565_78397" cx="0" cy="0" r="1" gradientUnits="userSpaceOnUse" gradientTransform="translate(160.652 52.8047) scale(51.0548 51.2416)">
<stop stop-color="#F24477"/>
<stop offset="1" stop-color="#C8005B"/>
</radialGradient>
<radialGradient id="paint7_radial_8565_78397" cx="0" cy="0" r="1" gradientUnits="userSpaceOnUse" gradientTransform="translate(269.553 42.5174) scale(33.3243 33.4463)">
<stop stop-color="#F8AA15"/>
<stop offset="0.1" stop-color="#FF5094"/>
<stop offset="0.32" stop-color="#6A58FF"/>
<stop offset="1" stop-color="#453CB0"/>
</radialGradient>
<radialGradient id="paint8_radial_8565_78397" cx="0" cy="0" r="1" gradientUnits="userSpaceOnUse" gradientTransform="translate(269.644 44.1738) scale(30.2264 30.337)">
<stop stop-color="#F8AA15"/>
<stop offset="0.1" stop-color="#FF5094"/>
<stop offset="0.32" stop-color="#6A58FF"/>
<stop offset="1" stop-color="#453CB0"/>
</radialGradient>
<radialGradient id="paint9_radial_8565_78397" cx="0" cy="0" r="1" gradientUnits="userSpaceOnUse" gradientTransform="translate(131.331 48.8086) scale(145.588 146.121)">
<stop stop-color="#F8AA15"/>
<stop offset="0.1" stop-color="#FF5094"/>
<stop offset="0.32" stop-color="#6A58FF"/>
<stop offset="1" stop-color="#453CB0"/>
</radialGradient>
<radialGradient id="paint10_radial_8565_78397" cx="0" cy="0" r="1" gradientUnits="userSpaceOnUse" gradientTransform="translate(131.329 48.8104) scale(145.588 146.121)">
<stop stop-color="#F8AA15"/>
<stop offset="0.1" stop-color="#FF5094"/>
<stop offset="0.32" stop-color="#6A58FF"/>
<stop offset="1" stop-color="#453CB0"/>
</radialGradient>
<radialGradient id="paint11_radial_8565_78397" cx="0" cy="0" r="1" gradientUnits="userSpaceOnUse" gradientTransform="translate(131.33 48.8086) scale(145.588 146.121)">
<stop stop-color="#F8AA15"/>
<stop offset="0.1" stop-color="#FF5094"/>
<stop offset="0.32" stop-color="#6A58FF"/>
<stop offset="1" stop-color="#453CB0"/>
</radialGradient>
<radialGradient id="paint12_radial_8565_78397" cx="0" cy="0" r="1" gradientUnits="userSpaceOnUse" gradientTransform="translate(131.334 48.8086) scale(145.588 146.121)">
<stop stop-color="#F8AA15"/>
<stop offset="0.1" stop-color="#FF5094"/>
<stop offset="0.32" stop-color="#6A58FF"/>
<stop offset="1" stop-color="#453CB0"/>
</radialGradient>
<radialGradient id="paint13_radial_8565_78397" cx="0" cy="0" r="1" gradientUnits="userSpaceOnUse" gradientTransform="translate(131.328 48.8101) scale(145.588 146.121)">
<stop stop-color="#F8AA15"/>
<stop offset="0.1" stop-color="#FF5094"/>
<stop offset="0.32" stop-color="#6A58FF"/>
<stop offset="1" stop-color="#453CB0"/>
</radialGradient>
<radialGradient id="paint14_radial_8565_78397" cx="0" cy="0" r="1" gradientUnits="userSpaceOnUse" gradientTransform="translate(131.33 48.8104) scale(145.588 146.121)">
<stop stop-color="#F8AA15"/>
<stop offset="0.1" stop-color="#FF5094"/>
<stop offset="0.32" stop-color="#6A58FF"/>
<stop offset="1" stop-color="#453CB0"/>
</radialGradient>
<radialGradient id="paint15_radial_8565_78397" cx="0" cy="0" r="1" gradientUnits="userSpaceOnUse" gradientTransform="translate(131.329 48.8086) scale(145.588 146.121)">
<stop stop-color="#F8AA15"/>
<stop offset="0.1" stop-color="#FF5094"/>
<stop offset="0.32" stop-color="#6A58FF"/>
<stop offset="1" stop-color="#453CB0"/>
</radialGradient>
<radialGradient id="paint16_radial_8565_78397" cx="0" cy="0" r="1" gradientUnits="userSpaceOnUse" gradientTransform="translate(131.332 48.8104) scale(145.588 146.121)">
<stop stop-color="#F8AA15"/>
<stop offset="0.1" stop-color="#FF5094"/>
<stop offset="0.32" stop-color="#6A58FF"/>
<stop offset="1" stop-color="#453CB0"/>
</radialGradient>
<radialGradient id="paint17_radial_8565_78397" cx="0" cy="0" r="1" gradientUnits="userSpaceOnUse" gradientTransform="translate(131.331 48.8071) scale(145.588 146.121)">
<stop stop-color="#F8AA15"/>
<stop offset="0.1" stop-color="#FF5094"/>
<stop offset="0.32" stop-color="#6A58FF"/>
<stop offset="1" stop-color="#453CB0"/>
</radialGradient>
<radialGradient id="paint18_radial_8565_78397" cx="0" cy="0" r="1" gradientUnits="userSpaceOnUse" gradientTransform="translate(131.329 48.807) scale(145.588 146.121)">
<stop stop-color="#F8AA15"/>
<stop offset="0.1" stop-color="#FF5094"/>
<stop offset="0.32" stop-color="#6A58FF"/>
<stop offset="1" stop-color="#453CB0"/>
</radialGradient>
<radialGradient id="paint19_radial_8565_78397" cx="0" cy="0" r="1" gradientUnits="userSpaceOnUse" gradientTransform="translate(131.332 48.8104) scale(145.588 146.121)">
<stop stop-color="#F8AA15"/>
<stop offset="0.1" stop-color="#FF5094"/>
<stop offset="0.32" stop-color="#6A58FF"/>
<stop offset="1" stop-color="#453CB0"/>
</radialGradient>
</defs>
</svg>
