<?xml version="1.0" encoding="utf-8"?>
<!-- Generator: Adobe Illustrator 26.5.0, SVG Export Plug-In . SVG Version: 6.00 Build 0)  -->
<svg version="1.1" id="Layer_1" xmlns="http://www.w3.org/2000/svg" xmlns:xlink="http://www.w3.org/1999/xlink" x="0px" y="0px"
	 viewBox="0 0 400 400" style="enable-background:new 0 0 400 400;" xml:space="preserve">
<style type="text/css">
	.st0{fill:url(#SVGID_1_);}
	.st1{fill:url(#SVGID_00000073704148373172092090000012589036976037358510_);}
</style>
<g>
	<g>
		
			<radialGradient id="SVGID_1_" cx="198.861" cy="419.4789" r="487.2818" gradientTransform="matrix(1 0 0 1 -0.1784 0)" gradientUnits="userSpaceOnUse">
			<stop  offset="0" style="stop-color:#F8AA15"/>
			<stop  offset="0.1" style="stop-color:#FF5094"/>
			<stop  offset="0.32" style="stop-color:#6A58FF"/>
			<stop  offset="1" style="stop-color:#453CB0"/>
		</radialGradient>
		<path class="st0" d="M390.7,129.8C379.5,118.1,242.4,15.4,226.8,4c-4.9-3.5-16.4-4.1-26.8-4c-10.4-0.1-21.9,0.5-26.8,4
			C157.6,15.4,20.5,118.1,9.3,129.8c-3.9,4.1-10.8,10.4-9.1,20.6c0.6,3.7,9.2,13.5,18.3,24c10.4,11.9,22,24.4,33.7,24.4H105
			c14.8-0.3,28-7.5,41.4-12.7c0.3,0.3,0.6,0.6,0.8,0.8c-5.3,4-10.3,7.9-15.7,11.8h0c-27.7,21-57.1,43.5-61.2,47.9
			c-2.6,2.8-7.3,7.1-6.2,14c0.4,2.5,6.2,9.2,12.4,16.3c7,8.1,15,16.6,22.9,16.6h201c7.9,0,15.9-8.5,22.9-16.6
			c6.2-7.1,12-13.8,12.4-16.3c1.2-6.9-3.5-11.2-6.2-14c-4.1-4.3-33.5-26.9-61.2-47.9c-5.3-4-10.3-7.9-15.7-11.8
			c0.3-0.3,0.5-0.6,0.8-0.8c13.5,5.2,26.7,12.4,41.4,12.7h52.7c11.7,0,23.3-12.5,33.7-24.4c9.1-10.5,17.6-20.3,18.3-24
			C401.4,140.2,394.5,133.8,390.7,129.8z"/>
		
			<radialGradient id="SVGID_00000113337514686307672270000016930008612650375597_" cx="200.1784" cy="443.6364" r="441.9901" gradientTransform="matrix(1 0 0 1 -0.1784 0)" gradientUnits="userSpaceOnUse">
			<stop  offset="0" style="stop-color:#F8AA15"/>
			<stop  offset="0.1" style="stop-color:#FF5094"/>
			<stop  offset="0.32" style="stop-color:#6A58FF"/>
			<stop  offset="1" style="stop-color:#453CB0"/>
		</radialGradient>
		<path style="fill:url(#SVGID_00000113337514686307672270000016930008612650375597_);" d="M210.2,325.8c-1.9-1.3-6.2-1.6-10.2-1.5
			c-4,0-8.3,0.2-10.2,1.5c-5.9,4.3-58.2,43.4-62.4,47.9c-1.5,1.6-4.1,4-3.5,7.8c0.2,1.4,3.5,5.1,7,9.1c3.9,4.5,8.4,9.3,12.8,9.3
			h112.5c4.5,0,8.9-4.8,12.8-9.3c3.5-4,6.7-7.7,7-9.1c0.7-3.9-2-6.3-3.5-7.8C268.4,369.3,216.1,330.2,210.2,325.8z"/>
	</g>
</g>
</svg>
