<svg width="63" height="62" viewBox="0 0 63 62" fill="none" xmlns="http://www.w3.org/2000/svg">
<rect x="0.5" width="62" height="62" rx="31" fill="white"/>
<path d="M40.4834 29.4128L26.9759 21.1506C26.6927 20.9779 26.3687 20.8835 26.037 20.877C25.7053 20.8704 25.3778 20.952 25.0879 21.1134C24.798 21.2747 24.5562 21.5101 24.387 21.7955C24.2179 22.0809 24.1274 22.4061 24.125 22.7378V39.2622C24.1274 39.5939 24.2179 39.9191 24.387 40.2045C24.5562 40.4899 24.798 40.7253 25.0879 40.8866C25.3778 41.048 25.7053 41.1296 26.037 41.1231C26.3687 41.1165 26.6927 41.0221 26.9759 40.8494L40.4834 32.5872C40.7558 32.4214 40.9809 32.1883 41.1371 31.9103C41.2934 31.6324 41.3754 31.3189 41.3754 31C41.3754 30.6811 41.2934 30.3676 41.1371 30.0897C40.9809 29.8117 40.7558 29.5786 40.4834 29.4128ZM26.375 38.5797V23.4203L38.765 31L26.375 38.5797Z" fill="black"/>
</svg>
