<?xml version="1.0" encoding="UTF-8"?>
<svg id="Warstwa_2" data-name="Warstwa 2" xmlns="http://www.w3.org/2000/svg" viewBox="0 0 100 100">
  <defs>
    <style>
      .cls-1 {
        fill: #f2f2f2;
      }

      .cls-2 {
        fill: #111;
        fill-rule: evenodd;
      }
    </style>
  </defs>
  <g id="Warstwa_1-2" data-name="Warstwa 1">
    <circle class="cls-1" cx="50" cy="50" r="50"/>
    <path class="cls-2" d="m15.83,65.03h1.9v-10.13h-1.9v10.13Zm6.95-.15h1.7v-6.39l7.15,6.54v-9.98h-1.69v6.28l-7.15-6.43v9.98Zm12.72-2.45c.92.72,2.03,1.14,3.22,1.14s1.97-.4,1.97-1.28c0-.77-.52-1.07-1.43-1.4l-1.47-.51c-1.35-.48-2.38-1.18-2.38-2.8,0-1.73,1.56-2.67,3.42-2.67,1.14,0,2.18.29,3,.8v1.71c-.85-.63-1.77-1.06-2.96-1.06-1.02,0-1.79.38-1.79,1.18,0,.72.48,1.01,1.33,1.3l1.64.57c1.59.56,2.31,1.42,2.31,2.85,0,1.79-1.57,2.78-3.64,2.78-1.36,0-2.51-.38-3.22-.86v-1.75Zm11.29,2.6h1.89v-10.13h-1.89v10.13Zm10.78-1.53c2.14,0,3.28-1.37,3.28-3.53s-1.14-3.54-3.28-3.54h-2.11v7.08h2.11Zm-3.84-8.59h3.9c3,0,4.94,1.98,4.94,5.06s-1.94,5.07-4.94,5.07h-3.9v-10.13Zm18.32,0v1.52h-4.59v2.44h4.11v1.5h-4.11v3.14h4.59v1.53h-6.32v-10.13h6.32Zm6.73,4.59h1.88c1.11,0,1.74-.61,1.74-1.55s-.63-1.55-1.74-1.55h-1.88v3.1h0Zm0,1.43v4.11h-1.67v-10.13h3.59c2.04,0,3.37,1.05,3.37,3.04,0,1.7-.73,2.67-2.3,2.92l3.56,4.17h-1.9l-3.44-4.11h-1.19Zm-63.61-16c.74-.27,1.32-1.09,1.32-2.21,0-1.87-1.32-2.83-3.43-2.83h-3.54v10.41h3.87c2.11,0,3.43-1.03,3.43-2.99,0-1.1-.69-2.07-1.65-2.39Zm-3.99-.66v-2.85h1.86c1.17,0,1.8.42,1.8,1.41s-.63,1.44-1.8,1.44h-1.86Zm0,1.46h2.18c1.16,0,1.78.58,1.78,1.53s-.63,1.53-1.78,1.53h-2.18v-3.05h0Zm13.37,4.75c2.42,0,4.06-1.46,4.06-4.31v-6.28h-1.71v6.07c0,2-.82,2.94-2.34,2.94s-2.34-.93-2.34-2.94v-6.07h-1.71v6.26c0,2.87,1.65,4.33,4.05,4.33Zm8.09-.92c.71.51,1.86.92,3.21.92,2.06,0,3.63-1.05,3.63-2.95,0-1.51-.72-2.43-2.31-3.02l-1.63-.61c-.84-.3-1.32-.61-1.32-1.37,0-.85.76-1.25,1.78-1.25,1.19,0,2.11.46,2.95,1.12v-1.82c-.81-.54-1.85-.85-2.98-.85-1.86,0-3.41,1-3.41,2.83,0,1.71,1.02,2.46,2.37,2.97l1.47.54c.91.36,1.42.68,1.42,1.49,0,.93-.81,1.36-1.96,1.36s-2.29-.44-3.21-1.2c0,0,0,1.85,0,1.85Zm12.97-9.67h-1.71v10.41h1.71v-10.41Zm4.89,10.4h1.65v-6.77l6.95,6.94v-10.58h-1.65v6.66l-6.96-6.82s0,10.58,0,10.58Zm19.32-10.4v1.56h-4.45v2.51h3.99v1.54h-3.99v3.23h4.45v1.58h-6.13v-10.41h6.13Zm3.99,9.66c.71.51,1.86.92,3.21.92,2.06,0,3.63-1.05,3.63-2.95,0-1.51-.73-2.42-2.31-3.02l-1.63-.61c-.84-.31-1.32-.61-1.32-1.37,0-.85.76-1.25,1.78-1.25,1.19,0,2.11.46,2.95,1.12v-1.81c-.81-.54-1.85-.85-2.98-.85-1.86,0-3.41,1-3.41,2.83,0,1.71,1.02,2.46,2.37,2.97l1.47.54c.91.36,1.42.68,1.42,1.49,0,.93-.81,1.36-1.96,1.36s-2.29-.44-3.21-1.2c0,0,0,1.85,0,1.85Zm10.35,0c.71.51,1.86.92,3.21.92,2.06,0,3.63-1.05,3.63-2.95,0-1.51-.73-2.42-2.31-3.02l-1.63-.61c-.84-.31-1.32-.61-1.32-1.37,0-.85.76-1.25,1.78-1.25,1.19,0,2.11.46,2.95,1.12v-1.81c-.81-.54-1.85-.85-2.98-.85-1.86,0-3.41,1-3.41,2.83,0,1.71,1.02,2.46,2.37,2.97l1.47.54c.91.36,1.42.68,1.42,1.49,0,.93-.81,1.36-1.96,1.36s-2.29-.44-3.21-1.2c0,0,0,1.85,0,1.85Z"/>
  </g>
</svg>