<svg width="21" height="22" viewBox="0 0 21 22" fill="none" xmlns="http://www.w3.org/2000/svg">
<path d="M3.17411 17.8661V8.57143H6.26786V17.8661H3.17411ZM6.46875 5.70536C6.46875 6.58928 5.79911 7.3125 4.71429 7.3125H4.70089C3.65625 7.3125 2.98661 6.58928 2.98661 5.70536C2.98661 4.79464 3.68304 4.09821 4.74107 4.09821C5.79911 4.09821 6.45536 4.79464 6.46875 5.70536ZM14.3036 17.8661V12.8973C14.3036 11.6384 13.8616 10.7946 12.75 10.7946C11.8929 10.7946 11.3839 11.3705 11.1563 11.9196C11.0759 12.1205 11.0625 12.4018 11.0625 12.6696V17.8661H7.96875C8.00893 9.44196 7.96875 8.57143 7.96875 8.57143H11.0625V9.92411H11.0357C11.4375 9.28125 12.1741 8.35714 13.8348 8.35714C15.8705 8.35714 17.3973 9.68304 17.3973 12.5357V17.8661H14.3036ZM20.5714 4.5C20.5714 2.37053 18.8438 0.642856 16.7143 0.642856H3.85714C1.72768 0.642856 0 2.37053 0 4.5V17.3571C0 19.4866 1.72768 21.2143 3.85714 21.2143H16.7143C18.8438 21.2143 20.5714 19.4866 20.5714 17.3571V4.5Z" fill="#FBFAFC"/>
</svg>
