<?xml version="1.0" encoding="utf-8"?>
<!-- Generator: Adobe Illustrator 26.5.0, SVG Export Plug-In . SVG Version: 6.00 Build 0)  -->
<svg version="1.1" id="Layer_1" xmlns="http://www.w3.org/2000/svg" xmlns:xlink="http://www.w3.org/1999/xlink" x="0px" y="0px"
	 viewBox="0 0 1840 240" style="enable-background:new 0 0 1840 240;" xml:space="preserve">
<style type="text/css">
	.st0{fill:url(#SVGID_1_);}
	.st1{fill:url(#SVGID_00000134248329491836841010000018402384383315968155_);}
	.st2{fill:url(#SVGID_00000025442544577506065610000004914983333306569884_);}
	.st3{fill:url(#SVGID_00000166660937551759510050000009234289179719487144_);}
	.st4{fill:url(#SVGID_00000063622995203597040440000018264820268306126482_);}
	.st5{fill:url(#SVGID_00000169518729392414448430000015472138014377400733_);}
	.st6{fill:url(#SVGID_00000071557939994992666490000016563349414272630963_);}
	.st7{fill:url(#SVGID_00000103967433921788111750000016892900462060530816_);}
	.st8{fill:url(#SVGID_00000153666720813141250650000017497812769937281722_);}
	.st9{fill:url(#SVGID_00000132779295195427996810000008474612457810984576_);}
	.st10{fill:url(#SVGID_00000137821695026465668880000002294335549114741688_);}
	.st11{fill:url(#SVGID_00000155847101831990724400000017320454805492677508_);}
	.st12{fill:url(#SVGID_00000012464021235494332750000002048110899947130535_);}
</style>
<g>
	<g>
		
			<radialGradient id="SVGID_1_" cx="1746.2462" cy="195.8077" r="227.3982" gradientTransform="matrix(1 0 0 1 -0.1784 0)" gradientUnits="userSpaceOnUse">
			<stop  offset="0" style="stop-color:#F8AA15"/>
			<stop  offset="0.1" style="stop-color:#FF5094"/>
			<stop  offset="0.32" style="stop-color:#B0B8FF"/>
			<stop  offset="0.64" style="stop-color:#B0B8FF"/>
			<stop  offset="1" style="stop-color:#FFFFFF"/>
		</radialGradient>
		<path class="st0" d="M1835.7,60.6c-5.2-5.5-69.2-53.4-76.5-58.7c-2.3-1.7-7.6-1.9-12.5-1.9c-4.9,0-10.2,0.2-12.5,1.9
			c-7.3,5.3-71.3,53.2-76.5,58.7c-1.8,1.9-5,4.9-4.2,9.6c0.3,1.7,4.3,6.3,8.5,11.2c4.8,5.6,10.3,11.4,15.7,11.4h24.6
			c6.9-0.1,13.1-3.5,19.3-5.9c0.1,0.1,0.3,0.3,0.4,0.4c-2.5,1.8-4.8,3.7-7.3,5.5h0c-12.9,9.8-26.6,20.3-28.6,22.3
			c-1.2,1.3-3.4,3.3-2.9,6.5c0.2,1.2,2.9,4.3,5.8,7.6c3.3,3.8,7,7.7,10.7,7.7h93.8c3.7,0,7.4-4,10.7-7.7c2.9-3.3,5.6-6.4,5.8-7.6
			c0.5-3.2-1.6-5.2-2.9-6.5c-1.9-2-15.6-12.6-28.6-22.3c-2.5-1.8-4.8-3.7-7.3-5.5c0.1-0.1,0.3-0.3,0.4-0.4
			c6.3,2.4,12.5,5.8,19.3,5.9h24.6c5.5,0,10.9-5.8,15.7-11.4c4.2-4.9,8.2-9.5,8.5-11.2C1840.7,65.5,1837.5,62.5,1835.7,60.6z"/>
		
			<radialGradient id="SVGID_00000176012112753832296790000014630939254482787254_" cx="1746.8611" cy="207.0812" r="206.2621" gradientTransform="matrix(1 0 0 1 -0.1784 0)" gradientUnits="userSpaceOnUse">
			<stop  offset="0" style="stop-color:#F8AA15"/>
			<stop  offset="0.1" style="stop-color:#FF5094"/>
			<stop  offset="0.32" style="stop-color:#B0B8FF"/>
			<stop  offset="0.64" style="stop-color:#B0B8FF"/>
			<stop  offset="1" style="stop-color:#FFFFFF"/>
		</radialGradient>
		<path style="fill:url(#SVGID_00000176012112753832296790000014630939254482787254_);" d="M1751.4,152.1c-0.9-0.6-2.9-0.7-4.8-0.7
			c-1.9,0-3.9,0.1-4.8,0.7c-2.8,2-27.1,20.3-29.1,22.3c-0.7,0.7-1.9,1.8-1.6,3.7c0.1,0.7,1.6,2.4,3.2,4.3c1.8,2.1,3.9,4.3,6,4.3
			h52.5c2.1,0,4.1-2.2,6-4.3c1.6-1.9,3.1-3.6,3.2-4.3c0.3-1.8-0.9-2.9-1.6-3.7C1778.6,172.4,1754.2,154.1,1751.4,152.1z"/>
	</g>
	<g>
		
			<radialGradient id="SVGID_00000134944656957416931160000015042090819827412911_" cx="802.705" cy="238.5701" r="993.4675" gradientTransform="matrix(0.9998 0 0 1 0.1531 0)" gradientUnits="userSpaceOnUse">
			<stop  offset="0" style="stop-color:#F8AA15"/>
			<stop  offset="0.1" style="stop-color:#FF5094"/>
			<stop  offset="0.32" style="stop-color:#B0B8FF"/>
			<stop  offset="0.64" style="stop-color:#B0B8FF"/>
			<stop  offset="1" style="stop-color:#FFFFFF"/>
		</radialGradient>
		<path style="fill:url(#SVGID_00000134944656957416931160000015042090819827412911_);" d="M34.4,184.5L2.1,152.3
			C0.5,150.7,0,149.6,0,148v-0.3c0-2.1,0.5-3.5,2.4-5.3l33.1-33.1c1.6-1.6,2.9-2.1,5.3-2.1h47.7c5.1,0,8-2.9,8-8V85.9
			c0-5.1-2.9-8-8-8H11.2c-1.9,0-3.2-1.3-3.2-3.2V55.2c0-1.9,1.3-3.2,3.2-3.2h70.4c2.4,0,3.7,0.5,5.3,2.1L120,87.2
			c1.9,1.9,2.4,2.9,2.4,4.8v0.5c0,2.1-0.5,3.5-2.4,5.3l-33.1,33.1c-1.6,1.6-2.9,2.1-5.3,2.1H33.9c-5.1,0-8,2.7-8,7.7v3.2l16.5,16.8
			h68.8c1.9,0,3.2,1.3,3.2,3.2v19.5c0,1.9-1.3,3.2-3.2,3.2H39.7C37.6,186.7,36,186.1,34.4,184.5z"/>
		
			<radialGradient id="SVGID_00000156548267392969188200000000462394509487438237_" cx="802.705" cy="238.5701" r="993.4675" gradientTransform="matrix(0.9998 0 0 1 0.1531 0)" gradientUnits="userSpaceOnUse">
			<stop  offset="0" style="stop-color:#F8AA15"/>
			<stop  offset="0.1" style="stop-color:#FF5094"/>
			<stop  offset="0.32" style="stop-color:#B0B8FF"/>
			<stop  offset="0.64" style="stop-color:#B0B8FF"/>
			<stop  offset="1" style="stop-color:#FFFFFF"/>
		</radialGradient>
		<path style="fill:url(#SVGID_00000156548267392969188200000000462394509487438237_);" d="M176.5,184.5l-33.1-33.1
			c-1.6-1.6-2.1-3.2-2.1-5.3V92.5c0-2.1,0.5-3.7,2.1-5.3l33.1-33.1c1.6-1.6,3.2-2.1,5.3-2.1h45.6c2.1,0,3.7,0.5,5.3,2.1l33.1,33.1
			c1.6,1.6,2.1,2.9,2.1,5.3v52.8c0,2.4-0.8,3.7-2.4,5.3l-33.9,33.9c-1.6,1.6-3.2,2.1-5.3,2.1h-44.5
			C179.7,186.7,178.1,186.1,176.5,184.5z M220,160.8l22.1-22.7V85.9c0-5.1-2.9-8-8-8h-58.9c-5.1,0-8,2.9-8,8v66.9c0,5.1,2.9,8,8,8
			H220z"/>
		
			<radialGradient id="SVGID_00000129922783692555846340000016399986520390893984_" cx="802.705" cy="238.5701" r="993.4675" gradientTransform="matrix(0.9998 0 0 1 0.1531 0)" gradientUnits="userSpaceOnUse">
			<stop  offset="0" style="stop-color:#F8AA15"/>
			<stop  offset="0.1" style="stop-color:#FF5094"/>
			<stop  offset="0.32" style="stop-color:#B0B8FF"/>
			<stop  offset="0.64" style="stop-color:#B0B8FF"/>
			<stop  offset="1" style="stop-color:#FFFFFF"/>
		</radialGradient>
		<path style="fill:url(#SVGID_00000129922783692555846340000016399986520390893984_);" d="M301.3,183.5V55.2c0-1.9,1.3-3.2,3.2-3.2
			H324c1.9,0,3.2,1.3,3.2,3.2v128.3c0,1.9-1.3,3.2-3.2,3.2h-19.5C302.6,186.7,301.3,185.3,301.3,183.5z M398.1,183.5V85.9
			c0-5.1-2.9-8-8-8h-54.4c-4.3,0-5.9-4-2.7-7.2l16.5-16.5c1.6-1.6,3.2-2.1,5.3-2.1h28.5c2.1,0,3.7,0.5,5.3,2.1l33.1,33.1
			c1.6,1.6,2.1,3.2,2.1,5.3v90.9c0,1.9-1.3,3.2-3.2,3.2h-19.5C399.4,186.7,398.1,185.3,398.1,183.5z"/>
		
			<radialGradient id="SVGID_00000112614860111759592360000008186078797815135653_" cx="802.705" cy="238.5701" r="993.4675" gradientTransform="matrix(0.9998 0 0 1 0.1531 0)" gradientUnits="userSpaceOnUse">
			<stop  offset="0" style="stop-color:#F8AA15"/>
			<stop  offset="0.1" style="stop-color:#FF5094"/>
			<stop  offset="0.32" style="stop-color:#B0B8FF"/>
			<stop  offset="0.64" style="stop-color:#B0B8FF"/>
			<stop  offset="1" style="stop-color:#FFFFFF"/>
		</radialGradient>
		<path style="fill:url(#SVGID_00000112614860111759592360000008186078797815135653_);" d="M582.6,3.2v180.3c0,1.9-1.3,3.2-3.2,3.2
			h-19.5c-1.9,0-3.2-1.3-3.2-3.2V85.3c0-6.1-2.7-7.5-8-7.5h-58.9c-5.1,0-8,2.9-8,8v66.9c0,5.1,2.9,8,8,8h58.4c4.3,0,5.9,4,2.7,7.2
			l-16.5,16.5c-1.6,1.6-3.2,2.1-5.3,2.1h-32.5c-2.1,0-3.7-0.5-5.3-2.1l-33.1-33.1c-1.6-1.6-2.1-2.9-2.1-5.3V92.5
			c0-2.4,0.5-3.7,2.1-5.3l33.1-33.1c1.6-1.6,3.2-2.1,5.3-2.1h40c2.4,0,3.7,0.5,5.3,2.1l14.9,14.9V3.2c0-1.9,1.3-3.2,3.2-3.2h19.5
			C581.3,0,582.6,1.3,582.6,3.2z"/>
		
			<radialGradient id="SVGID_00000149364013039668037890000016845318894703109798_" cx="802.705" cy="238.5701" r="993.4675" gradientTransform="matrix(0.9998 0 0 1 0.1531 0)" gradientUnits="userSpaceOnUse">
			<stop  offset="0" style="stop-color:#F8AA15"/>
			<stop  offset="0.1" style="stop-color:#FF5094"/>
			<stop  offset="0.32" style="stop-color:#B0B8FF"/>
			<stop  offset="0.64" style="stop-color:#B0B8FF"/>
			<stop  offset="1" style="stop-color:#FFFFFF"/>
		</radialGradient>
		<path style="fill:url(#SVGID_00000149364013039668037890000016845318894703109798_);" d="M739.9,92.5v90.9c0,1.9-1.3,3.2-3.2,3.2
			h-19.5c-1.9,0-3.2-1.3-3.2-3.2v-45.9c0-6.1-2.7-7.5-8-7.5h-60.3c-5.1,0-8,2.9-8,8v14.7c0,5.1,2.9,8,8,8h59.7c4.3,0,5.9,4,2.7,7.2
			l-16.5,16.5c-1.6,1.6-3.2,2.1-5.3,2.1h-33.9c-2.1,0-3.7-0.5-5.3-2.1l-33.1-33.1c-1.6-1.6-2.1-2.9-2.1-5.1v-2.1
			c0-1.6,0.5-2.9,2.4-4.8l33.1-33.1c1.6-1.6,2.9-2.1,5.3-2.1h41.1c2.4,0,3.7,0.5,5.3,2.1l14.9,14.9V85.9c0-5.1-2.9-8-8-8h-57.6
			c-5.1,0-8,2.9-8,8v13.6c0,1.9-1.3,3.2-3.2,3.2h-19.5c-1.9,0-3.2-1.3-3.2-3.2v-6.9c0-2.1,0.5-3.5,2.4-5.3L650,54.1
			c1.6-1.6,2.9-2.1,5.3-2.1h43.7c2.4,0,3.7,0.5,5.3,2.1l33.1,33.1C739.4,89.1,739.9,90.4,739.9,92.5z"/>
		
			<radialGradient id="SVGID_00000076594258974593577820000015338685620194972564_" cx="802.705" cy="238.5701" r="993.4675" gradientTransform="matrix(0.9998 0 0 1 0.1531 0)" gradientUnits="userSpaceOnUse">
			<stop  offset="0" style="stop-color:#F8AA15"/>
			<stop  offset="0.1" style="stop-color:#FF5094"/>
			<stop  offset="0.32" style="stop-color:#B0B8FF"/>
			<stop  offset="0.64" style="stop-color:#B0B8FF"/>
			<stop  offset="1" style="stop-color:#FFFFFF"/>
		</radialGradient>
		<path style="fill:url(#SVGID_00000076594258974593577820000015338685620194972564_);" d="M808.2,184.5l-33.9-33.9
			c-1.6-1.6-2.4-2.9-2.4-5.3V92.5c0-2.4,0.5-3.7,2.1-5.3l33.1-33.1c1.6-1.6,3.2-2.1,5.3-2.1h41.1c1.6,0,2.7,0.3,4,1.6l32.8,32.3
			c1.1,1.1,1.6,2.4,1.6,4v9.3c0,1.9-1.3,3.2-3.2,3.2l-19.5,0.3c-1.9,0-3.2-1.3-3.2-3.2V80.8c0-1.9-1.3-3.2-3.2-3.2l-57.1,0.3
			c-5.1,0-8,2.9-8,8v52.3l22.1,22.7h42.9c1.9,0,3.2-1.3,3.2-3.2v-19.2c0-1.9,1.3-3.2,3.2-3.2h19.5c1.9,0,3.2,1.3,3.2,3.2v9.9
			c0,1.6-0.5,2.9-1.6,4l-32.8,32.8c-1.3,1.3-2.4,1.6-4,1.6h-40C811.4,186.7,809.8,186.1,808.2,184.5z"/>
		
			<radialGradient id="SVGID_00000180364164576393320250000000502630960265868473_" cx="802.705" cy="238.5701" r="993.4675" gradientTransform="matrix(0.9998 0 0 1 0.1531 0)" gradientUnits="userSpaceOnUse">
			<stop  offset="0" style="stop-color:#F8AA15"/>
			<stop  offset="0.1" style="stop-color:#FF5094"/>
			<stop  offset="0.32" style="stop-color:#B0B8FF"/>
			<stop  offset="0.64" style="stop-color:#B0B8FF"/>
			<stop  offset="1" style="stop-color:#FFFFFF"/>
		</radialGradient>
		<path style="fill:url(#SVGID_00000180364164576393320250000000502630960265868473_);" d="M921.2,183.5V55.2c0-1.9,1.3-3.2,3.2-3.2
			h19.5c1.9,0,3.2,1.3,3.2,3.2v128.3c0,1.9-1.3,3.2-3.2,3.2h-19.5C922.5,186.7,921.2,185.3,921.2,183.5z M999.6,118.1V85.9
			c0-5.1-2.9-8-8-8h-36c-4.3,0-5.9-4-2.7-7.2l16.5-16.5c1.6-1.6,3.2-2.1,5.3-2.1h10.1c2.1,0,3.7,0.5,5.3,2.1l33.1,33.1
			c1.6,1.6,2.1,3.2,2.1,5.3v25.6c0,1.9-1.3,3.2-3.2,3.2h-19.5C1000.9,121.3,999.6,120,999.6,118.1z"/>
		
			<radialGradient id="SVGID_00000080906330258330297490000001745906423930644399_" cx="802.705" cy="238.5701" r="993.4675" gradientTransform="matrix(0.9998 0 0 1 0.1531 0)" gradientUnits="userSpaceOnUse">
			<stop  offset="0" style="stop-color:#F8AA15"/>
			<stop  offset="0.1" style="stop-color:#FF5094"/>
			<stop  offset="0.32" style="stop-color:#B0B8FF"/>
			<stop  offset="0.64" style="stop-color:#B0B8FF"/>
			<stop  offset="1" style="stop-color:#FFFFFF"/>
		</radialGradient>
		<path style="fill:url(#SVGID_00000080906330258330297490000001745906423930644399_);" d="M1086.3,237.9l-33.1-33.1
			c-1.9-1.9-2.4-3.2-2.4-5.3v-6.9c0-1.9,1.3-3.2,3.2-3.2h19.5c1.9,0,3.2,1.3,3.2,3.2v13.6c0,5.1,2.9,8,8,8h52.3c5.1,0,8-2.9,8-8
			V55.2c0-1.9,1.3-3.2,3.2-3.2h19.5c1.9,0,3.2,1.3,3.2,3.2v144.3c0,2.1-0.5,3.5-2.4,5.3l-33.1,33.1c-1.6,1.6-2.9,2.1-5.3,2.1h-38.4
			C1089.2,240,1087.9,239.5,1086.3,237.9z M1086,184.5l-33.1-33.1c-1.6-1.6-2.1-3.2-2.1-5.3V55.2c0-1.9,1.3-3.2,3.2-3.2h19.5
			c1.9,0,3.2,1.3,3.2,3.2v97.6c0,5.1,2.9,8,8,8h51.5c4.3,0,5.9,4,2.7,7.2l-16.5,16.5c-1.6,1.6-3.2,2.1-5.3,2.1h-25.6
			C1089.2,186.7,1087.6,186.1,1086,184.5z"/>
		
			<radialGradient id="SVGID_00000139983154626853775570000016555409581987302837_" cx="802.705" cy="238.5701" r="993.4675" gradientTransform="matrix(0.9998 0 0 1 0.1531 0)" gradientUnits="userSpaceOnUse">
			<stop  offset="0" style="stop-color:#F8AA15"/>
			<stop  offset="0.1" style="stop-color:#FF5094"/>
			<stop  offset="0.32" style="stop-color:#B0B8FF"/>
			<stop  offset="0.64" style="stop-color:#B0B8FF"/>
			<stop  offset="1" style="stop-color:#FFFFFF"/>
		</radialGradient>
		<path style="fill:url(#SVGID_00000139983154626853775570000016555409581987302837_);" d="M1337.4,92.5v53.6c0,2.4-0.5,3.7-2.1,5.3
			l-33.1,33.1c-1.6,1.6-3.2,2.1-5.3,2.1h-40c-2.4,0-3.7-0.5-5.3-2.1l-14.9-14.9v67.2c0,1.9-1.3,3.2-3.2,3.2H1214
			c-1.9,0-3.2-1.3-3.2-3.2V55.2c0-1.9,1.3-3.2,3.2-3.2h19.5c1.9,0,3.2,1.3,3.2,3.2v98.1c0,6.1,2.7,7.5,8,7.5h58.9c5.1,0,8-2.9,8-8
			V85.9c0-5.1-2.9-8-8-8h-58.4c-4.3,0-5.9-4-2.7-7.2l16.5-16.5c1.6-1.6,3.2-2.1,5.3-2.1h32.5c2.1,0,3.7,0.5,5.3,2.1l33.1,33.1
			C1336.9,88.8,1337.4,90.1,1337.4,92.5z"/>
		
			<radialGradient id="SVGID_00000159434979568883176810000003889999805754941866_" cx="802.705" cy="238.5701" r="993.4675" gradientTransform="matrix(0.9998 0 0 1 0.1531 0)" gradientUnits="userSpaceOnUse">
			<stop  offset="0" style="stop-color:#F8AA15"/>
			<stop  offset="0.1" style="stop-color:#FF5094"/>
			<stop  offset="0.32" style="stop-color:#B0B8FF"/>
			<stop  offset="0.64" style="stop-color:#B0B8FF"/>
			<stop  offset="1" style="stop-color:#FFFFFF"/>
		</radialGradient>
		<path style="fill:url(#SVGID_00000159434979568883176810000003889999805754941866_);" d="M1465.7,150.7l-33.6,33.9
			c-1.6,1.6-2.9,2.1-5.3,2.1h-10.7c-2.4,0-3.7-0.5-5.3-2.1l-33.1-33.1c-1.9-1.9-2.4-3.2-2.4-5.3V77.9h-17.3c-1.9,0-3.2-1.3-3.2-3.2
			V55.2c0-1.9,1.3-3.2,3.2-3.2h17.3V21.3c0-1.9,1.3-3.2,3.2-3.2h19.5c1.9,0,3.2,1.3,3.2,3.2v131.5c0,5.1,2.9,8,8,8h10.9l27.7-27.7
			c1.3-1.3,3.2-1.3,4.5,0l13.3,13.1C1467,147.5,1467,149.3,1465.7,150.7z M1407,70.7l16.5-16.5c1.6-1.6,3.2-2.1,5.3-2.1h31.2
			c1.9,0,3.2,1.3,3.2,3.2v19.5c0,1.9-1.3,3.2-3.2,3.2h-50.4C1405.4,77.9,1403.8,73.9,1407,70.7z"/>
		
			<radialGradient id="SVGID_00000134951938422177409240000009829183773709708417_" cx="802.705" cy="238.5701" r="993.4675" gradientTransform="matrix(0.9998 0 0 1 0.1531 0)" gradientUnits="userSpaceOnUse">
			<stop  offset="0" style="stop-color:#F8AA15"/>
			<stop  offset="0.1" style="stop-color:#FF5094"/>
			<stop  offset="0.32" style="stop-color:#B0B8FF"/>
			<stop  offset="0.64" style="stop-color:#B0B8FF"/>
			<stop  offset="1" style="stop-color:#FFFFFF"/>
		</radialGradient>
		<path style="fill:url(#SVGID_00000134951938422177409240000009829183773709708417_);" d="M1515.3,184.5l-33.1-33.1
			c-1.6-1.6-2.1-3.2-2.1-5.3V92.5c0-2.1,0.5-3.7,2.1-5.3l33.1-33.1c1.6-1.6,3.2-2.1,5.3-2.1h45.6c2.1,0,3.7,0.5,5.3,2.1l33.1,33.1
			c1.6,1.6,2.1,2.9,2.1,5.3v52.8c0,2.4-0.8,3.7-2.4,5.3l-33.9,33.9c-1.6,1.6-3.2,2.1-5.3,2.1h-44.5
			C1518.5,186.7,1516.9,186.1,1515.3,184.5z M1558.7,160.8l22.1-22.7V85.9c0-5.1-2.9-8-8-8h-58.9c-5.1,0-8,2.9-8,8v66.9
			c0,5.1,2.9,8,8,8H1558.7z"/>
	</g>
</g>
</svg>
