<svg width="251" height="62" viewBox="0 0 251 62" fill="none" xmlns="http://www.w3.org/2000/svg">
<g clip-path="url(#clip0_1161_11059)">
<path d="M224.68 25.0498C224.113 24.4496 217.129 19.2228 216.332 18.6445C216.081 18.459 215.503 18.4371 214.968 18.4371C214.434 18.4371 213.855 18.459 213.604 18.6445C212.808 19.2228 205.824 24.4496 205.257 25.0498C205.06 25.2571 204.711 25.5845 204.798 26.0973C204.831 26.2828 205.268 26.7848 205.726 27.3195C206.25 27.9305 206.85 28.5634 207.439 28.5634H210.124C210.876 28.5525 211.553 28.1815 212.23 27.9196C212.24 27.9305 212.262 27.9524 212.273 27.9633C212 28.1597 211.749 28.367 211.477 28.5634C210.069 29.6328 208.574 30.7785 208.356 30.9968C208.225 31.1386 207.985 31.3569 208.039 31.7061C208.061 31.837 208.356 32.1753 208.672 32.5354C209.032 32.95 209.436 33.3756 209.84 33.3756H220.075C220.479 33.3756 220.883 32.9391 221.243 32.5354C221.559 32.1753 221.854 31.837 221.876 31.7061C221.93 31.3569 221.701 31.1386 221.559 30.9968C221.352 30.7785 219.857 29.6219 218.438 28.5634C218.166 28.367 217.915 28.1597 217.642 27.9633C217.653 27.9524 217.675 27.9305 217.685 27.9196C218.373 28.1815 219.049 28.5525 219.791 28.5634H222.476C223.076 28.5634 223.665 27.9305 224.189 27.3195C224.647 26.7848 225.084 26.2828 225.117 26.0973C225.226 25.5845 224.876 25.2571 224.68 25.0498Z" fill="url(#paint0_radial_1161_11059)"/>
<path d="M215.492 35.0341C215.394 34.9687 215.176 34.9578 214.968 34.9578C214.761 34.9578 214.543 34.9687 214.445 35.0341C214.139 35.2524 211.487 37.2493 211.269 37.4675C211.193 37.5439 211.062 37.6639 211.095 37.8713C211.106 37.9476 211.269 38.1331 211.444 38.3405C211.64 38.5696 211.869 38.8097 212.099 38.8097H217.827C218.056 38.8097 218.275 38.5696 218.482 38.3405C218.657 38.1331 218.82 37.9476 218.831 37.8713C218.864 37.6748 218.733 37.5548 218.657 37.4675C218.449 37.2493 215.787 35.2633 215.492 35.0341Z" fill="url(#paint1_radial_1161_11059)"/>
<path d="M28.1231 38.5806L24.5985 35.056C24.4239 34.8814 24.3694 34.7614 24.3694 34.5868V34.5541C24.3694 34.3249 24.4239 34.1721 24.6312 33.9757L28.2431 30.3639C28.4177 30.1893 28.5595 30.1347 28.8214 30.1347H34.0264C34.5829 30.1347 34.8994 29.8183 34.8994 29.2618V27.8105C34.8994 27.254 34.5829 26.9375 34.0264 26.9375H25.5915C25.3842 26.9375 25.2423 26.7957 25.2423 26.5883V24.4605C25.2423 24.2532 25.3842 24.1113 25.5915 24.1113H33.2735C33.5354 24.1113 33.6772 24.1659 33.8518 24.3405L37.4637 27.9523C37.671 28.1597 37.7256 28.2688 37.7256 28.4761V28.5307C37.7256 28.7598 37.671 28.9126 37.4637 29.109L33.8518 32.7209C33.6772 32.8954 33.5354 32.95 33.2735 32.95H28.0685C27.512 32.95 27.1955 33.2446 27.1955 33.7902V34.1394L28.996 35.9726H36.5034C36.7108 35.9726 36.8526 36.1145 36.8526 36.3218V38.4496C36.8526 38.657 36.7108 38.7988 36.5034 38.7988H28.7014C28.4722 38.8097 28.2977 38.7552 28.1231 38.5806Z" fill="url(#paint2_radial_1161_11059)"/>
<path d="M43.6289 38.5806L40.0171 34.9688C39.8425 34.7942 39.7879 34.6196 39.7879 34.3905V28.5417C39.7879 28.3125 39.8425 28.1379 40.0171 27.9633L43.6289 24.3515C43.8035 24.1769 43.9781 24.1223 44.2073 24.1223H49.1831C49.4123 24.1223 49.5869 24.1769 49.7615 24.3515L53.3733 27.9633C53.5479 28.1379 53.6025 28.2798 53.6025 28.5417V34.3032C53.6025 34.5651 53.5152 34.7069 53.3406 34.8815L49.6523 38.5806C49.4777 38.7552 49.3032 38.8098 49.074 38.8098H44.2182C43.9781 38.8098 43.8035 38.7552 43.6289 38.5806ZM48.3756 35.9836L50.7872 33.5066V27.7996C50.7872 27.2431 50.4707 26.9267 49.9142 26.9267H43.4871C42.9306 26.9267 42.6141 27.2431 42.6141 27.7996V35.0997C42.6141 35.6562 42.9306 35.9727 43.4871 35.9727H48.3756V35.9836Z" fill="url(#paint3_radial_1161_11059)"/>
<path d="M57.2471 38.4605V24.4605C57.2471 24.2532 57.3889 24.1113 57.5963 24.1113H59.7241C59.9314 24.1113 60.0733 24.2532 60.0733 24.4605V38.4605C60.0733 38.6679 59.9314 38.8097 59.7241 38.8097H57.5963C57.3889 38.8097 57.2471 38.6679 57.2471 38.4605ZM67.8098 38.4605V27.8105C67.8098 27.254 67.4934 26.9375 66.9369 26.9375H61.0008C60.5316 26.9375 60.357 26.501 60.7062 26.1519L62.5066 24.3514C62.6812 24.1768 62.8558 24.1222 63.085 24.1222H66.1949C66.424 24.1222 66.5986 24.1768 66.7732 24.3514L70.3851 27.9632C70.5597 28.1378 70.6142 28.3124 70.6142 28.5416V38.4605C70.6142 38.6679 70.4724 38.8097 70.265 38.8097H68.1372C67.9517 38.8097 67.8098 38.6679 67.8098 38.4605Z" fill="url(#paint4_radial_1161_11059)"/>
<path d="M87.9424 18.7863V38.4606C87.9424 38.6679 87.8005 38.8097 87.5932 38.8097H85.4654C85.258 38.8097 85.1162 38.6679 85.1162 38.4606V27.7559C85.1162 27.0903 84.8216 26.9375 84.2432 26.9375H77.8161C77.2596 26.9375 76.9431 27.254 76.9431 27.8105V35.1106C76.9431 35.6671 77.2596 35.9835 77.8161 35.9835H84.1887C84.6579 35.9835 84.8325 36.42 84.4833 36.7692L82.6828 38.5697C82.5082 38.7443 82.3336 38.7988 82.1045 38.7988H78.5581C78.329 38.7988 78.1544 38.7443 77.9798 38.5697L74.3679 34.9578C74.1933 34.7832 74.1388 34.6414 74.1388 34.3795V28.5307C74.1388 28.2688 74.1933 28.1269 74.3679 27.9524L77.9798 24.3405C78.1544 24.1659 78.329 24.1113 78.5581 24.1113H82.9229C83.1848 24.1113 83.3266 24.1659 83.5012 24.3405L85.1271 25.9664V18.7863C85.1271 18.579 85.2689 18.4371 85.4763 18.4371H87.6041C87.8005 18.4371 87.9424 18.5899 87.9424 18.7863Z" fill="url(#paint5_radial_1161_11059)"/>
<path d="M105.107 28.5416V38.4605C105.107 38.6679 104.965 38.8097 104.758 38.8097H102.63C102.423 38.8097 102.281 38.6679 102.281 38.4605V33.452C102.281 32.7863 101.986 32.6336 101.408 32.6336H94.8278C94.2713 32.6336 93.9549 32.95 93.9549 33.5065V35.1106C93.9549 35.6671 94.2713 35.9835 94.8278 35.9835H101.342C101.811 35.9835 101.986 36.42 101.637 36.7692L99.8473 38.5806C99.6727 38.7552 99.4981 38.8097 99.269 38.8097H95.5698C95.3407 38.8097 95.1661 38.7552 94.9915 38.5806L91.3796 34.9687C91.205 34.7941 91.1505 34.6523 91.1505 34.4122V34.1831C91.1505 34.0085 91.205 33.8666 91.4124 33.6593L95.0242 30.0474C95.1988 29.8728 95.3407 29.8183 95.6026 29.8183H100.087C100.349 29.8183 100.491 29.8728 100.666 30.0474L102.292 31.6733V27.7996C102.292 27.2431 101.975 26.9266 101.419 26.9266H95.1333C94.5768 26.9266 94.2604 27.2431 94.2604 27.7996V29.2836C94.2604 29.4909 94.1185 29.6328 93.9112 29.6328H91.7834C91.576 29.6328 91.4342 29.4909 91.4342 29.2836V28.5307C91.4342 28.3015 91.4888 28.1487 91.6961 27.9523L95.3079 24.3405C95.4825 24.1659 95.6244 24.1113 95.8863 24.1113H100.655C100.917 24.1113 101.059 24.1659 101.233 24.3405L104.845 27.9523C105.052 28.1597 105.107 28.3015 105.107 28.5416Z" fill="url(#paint6_radial_1161_11059)"/>
<path d="M112.56 38.5806L108.861 34.8815C108.686 34.7069 108.599 34.5651 108.599 34.3032V28.5417C108.599 28.2798 108.653 28.1379 108.828 27.9633L112.44 24.3515C112.614 24.1769 112.789 24.1223 113.018 24.1223H117.503C117.677 24.1223 117.797 24.1551 117.939 24.2969L121.518 27.8215C121.638 27.9415 121.693 28.0834 121.693 28.2579V29.2728C121.693 29.4801 121.551 29.6219 121.344 29.6219L119.216 29.6547C119.009 29.6547 118.867 29.5128 118.867 29.3055V27.265C118.867 27.0576 118.725 26.9158 118.518 26.9158L112.287 26.9485C111.73 26.9485 111.414 27.265 111.414 27.8215V33.5284L113.826 36.0054H118.507C118.714 36.0054 118.856 35.8636 118.856 35.6562V33.5612C118.856 33.3538 118.998 33.212 119.205 33.212H121.344C121.551 33.212 121.693 33.3538 121.693 33.5612V34.6414C121.693 34.816 121.638 34.9579 121.518 35.0779L117.939 38.657C117.797 38.7989 117.677 38.8316 117.503 38.8316H113.138C112.909 38.8098 112.734 38.7552 112.56 38.5806Z" fill="url(#paint7_radial_1161_11059)"/>
<path d="M124.89 38.4605V24.4605C124.89 24.2532 125.032 24.1113 125.239 24.1113H127.367C127.575 24.1113 127.716 24.2532 127.716 24.4605V38.4605C127.716 38.6679 127.575 38.8097 127.367 38.8097H125.239C125.043 38.8097 124.89 38.6679 124.89 38.4605ZM133.445 31.335V27.8105C133.445 27.254 133.129 26.9375 132.572 26.9375H128.644C128.175 26.9375 128 26.501 128.349 26.1519L130.15 24.3514C130.324 24.1768 130.499 24.1222 130.728 24.1222H131.83C132.059 24.1222 132.234 24.1768 132.409 24.3514L136.02 27.9632C136.195 28.1378 136.25 28.3124 136.25 28.5416V31.335C136.25 31.5424 136.108 31.6842 135.9 31.6842H133.773C133.587 31.6842 133.445 31.5315 133.445 31.335Z" fill="url(#paint8_radial_1161_11059)"/>
<path d="M142.906 44.3966L139.294 40.7848C139.087 40.5775 139.032 40.4356 139.032 40.2065V39.4535C139.032 39.2462 139.174 39.1043 139.381 39.1043H141.509C141.716 39.1043 141.858 39.2462 141.858 39.4535V40.9376C141.858 41.4941 142.175 41.8105 142.731 41.8105H148.438C148.995 41.8105 149.311 41.4941 149.311 40.9376V24.4605C149.311 24.2532 149.453 24.1113 149.66 24.1113H151.788C151.996 24.1113 152.137 24.2532 152.137 24.4605V40.2065C152.137 40.4356 152.083 40.5884 151.876 40.7848L148.264 44.3966C148.089 44.5712 147.947 44.6258 147.685 44.6258H143.495C143.222 44.6258 143.08 44.5712 142.906 44.3966ZM142.873 38.5806L139.261 34.9687C139.087 34.7941 139.032 34.6195 139.032 34.3904V24.4714C139.032 24.2641 139.174 24.1222 139.381 24.1222H141.509C141.716 24.1222 141.858 24.2641 141.858 24.4714V35.1215C141.858 35.678 142.175 35.9944 142.731 35.9944H148.351C148.82 35.9944 148.995 36.4309 148.646 36.7801L146.845 38.5806C146.67 38.7552 146.496 38.8097 146.267 38.8097H143.473C143.222 38.8097 143.048 38.7552 142.873 38.5806Z" fill="url(#paint9_radial_1161_11059)"/>
<path d="M170.306 28.5416V34.3904C170.306 34.6523 170.251 34.7941 170.077 34.9687L166.465 38.5806C166.29 38.7552 166.116 38.8097 165.886 38.8097H161.522C161.26 38.8097 161.118 38.7552 160.943 38.5806L159.317 36.9547V44.2875C159.317 44.4949 159.176 44.6367 158.968 44.6367H156.84C156.633 44.6367 156.491 44.4949 156.491 44.2875V24.4605C156.491 24.2532 156.633 24.1113 156.84 24.1113H158.968C159.176 24.1113 159.317 24.2532 159.317 24.4605V35.1651C159.317 35.8308 159.612 35.9835 160.19 35.9835H166.618C167.174 35.9835 167.49 35.6671 167.49 35.1106V27.8105C167.49 27.254 167.174 26.9375 166.618 26.9375H160.245C159.776 26.9375 159.601 26.501 159.95 26.1519L161.751 24.3514C161.925 24.1768 162.1 24.1222 162.329 24.1222H165.876C166.105 24.1222 166.279 24.1768 166.454 24.3514L170.066 27.9632C170.251 28.1269 170.306 28.2797 170.306 28.5416Z" fill="url(#paint10_radial_1161_11059)"/>
<path d="M184.306 34.8815L180.639 38.5806C180.465 38.7552 180.323 38.8098 180.061 38.8098H178.893C178.632 38.8098 178.49 38.7552 178.315 38.5806L174.703 34.9688C174.496 34.7614 174.441 34.6196 174.441 34.3904V26.9376H172.554C172.346 26.9376 172.204 26.7957 172.204 26.5884V24.4606C172.204 24.2532 172.346 24.1114 172.554 24.1114H174.441V20.7614C174.441 20.5541 174.583 20.4122 174.791 20.4122H176.918C177.126 20.4122 177.268 20.5541 177.268 20.7614V35.1106C177.268 35.6671 177.584 35.9836 178.141 35.9836H179.33L182.353 32.961C182.494 32.8191 182.702 32.8191 182.844 32.961L184.295 34.3904C184.448 34.5323 184.448 34.7396 184.306 34.8815ZM177.901 26.1519L179.701 24.3514C179.876 24.1769 180.05 24.1223 180.279 24.1223H183.684C183.891 24.1223 184.033 24.2642 184.033 24.4715V26.5884C184.033 26.7957 183.891 26.9376 183.684 26.9376H178.195C177.726 26.9376 177.551 26.5011 177.901 26.1519Z" fill="url(#paint11_radial_1161_11059)"/>
<path d="M189.718 38.5806L186.106 34.9688C185.932 34.7942 185.877 34.6196 185.877 34.3905V28.5417C185.877 28.3125 185.932 28.1379 186.106 27.9633L189.718 24.3515C189.893 24.1769 190.067 24.1223 190.296 24.1223H195.272C195.501 24.1223 195.676 24.1769 195.851 24.3515L199.463 27.9633C199.637 28.1379 199.692 28.2798 199.692 28.5417V34.3032C199.692 34.5651 199.604 34.7069 199.43 34.8815L195.731 38.5806C195.556 38.7552 195.381 38.8098 195.152 38.8098H190.296C190.067 38.8098 189.893 38.7552 189.718 38.5806ZM194.454 35.9836L196.865 33.5066V27.7996C196.865 27.2431 196.549 26.9267 195.993 26.9267H189.565C189.009 26.9267 188.692 27.2431 188.692 27.7996V35.0997C188.692 35.6562 189.009 35.9727 189.565 35.9727H194.454V35.9836Z" fill="url(#paint12_radial_1161_11059)"/>
</g>
<defs>
<radialGradient id="paint0_radial_1161_11059" cx="0" cy="0" r="1" gradientUnits="userSpaceOnUse" gradientTransform="translate(214.901 39.8072) scale(24.8136 24.8136)">
<stop stop-color="#F8AA15"/>
<stop offset="0.1" stop-color="#FF5094"/>
<stop offset="0.32" stop-color="#6A58FF"/>
<stop offset="1" stop-color="#453CB0"/>
</radialGradient>
<radialGradient id="paint1_radial_1161_11059" cx="0" cy="0" r="1" gradientUnits="userSpaceOnUse" gradientTransform="translate(214.968 41.0373) scale(22.5072 22.5072)">
<stop stop-color="#F8AA15"/>
<stop offset="0.1" stop-color="#FF5094"/>
<stop offset="0.32" stop-color="#6A58FF"/>
<stop offset="1" stop-color="#453CB0"/>
</radialGradient>
<radialGradient id="paint2_radial_1161_11059" cx="0" cy="0" r="1" gradientUnits="userSpaceOnUse" gradientTransform="translate(111.961 44.4734) scale(108.385 108.407)">
<stop stop-color="#F8AA15"/>
<stop offset="0.1" stop-color="#FF5094"/>
<stop offset="0.32" stop-color="#6A58FF"/>
<stop offset="1" stop-color="#453CB0"/>
</radialGradient>
<radialGradient id="paint3_radial_1161_11059" cx="0" cy="0" r="1" gradientUnits="userSpaceOnUse" gradientTransform="translate(111.961 44.4735) scale(108.385 108.407)">
<stop stop-color="#F8AA15"/>
<stop offset="0.1" stop-color="#FF5094"/>
<stop offset="0.32" stop-color="#6A58FF"/>
<stop offset="1" stop-color="#453CB0"/>
</radialGradient>
<radialGradient id="paint4_radial_1161_11059" cx="0" cy="0" r="1" gradientUnits="userSpaceOnUse" gradientTransform="translate(111.961 44.4734) scale(108.385 108.407)">
<stop stop-color="#F8AA15"/>
<stop offset="0.1" stop-color="#FF5094"/>
<stop offset="0.32" stop-color="#6A58FF"/>
<stop offset="1" stop-color="#453CB0"/>
</radialGradient>
<radialGradient id="paint5_radial_1161_11059" cx="0" cy="0" r="1" gradientUnits="userSpaceOnUse" gradientTransform="translate(111.961 44.4734) scale(108.385 108.407)">
<stop stop-color="#F8AA15"/>
<stop offset="0.1" stop-color="#FF5094"/>
<stop offset="0.32" stop-color="#6A58FF"/>
<stop offset="1" stop-color="#453CB0"/>
</radialGradient>
<radialGradient id="paint6_radial_1161_11059" cx="0" cy="0" r="1" gradientUnits="userSpaceOnUse" gradientTransform="translate(111.961 44.4734) scale(108.385 108.407)">
<stop stop-color="#F8AA15"/>
<stop offset="0.1" stop-color="#FF5094"/>
<stop offset="0.32" stop-color="#6A58FF"/>
<stop offset="1" stop-color="#453CB0"/>
</radialGradient>
<radialGradient id="paint7_radial_1161_11059" cx="0" cy="0" r="1" gradientUnits="userSpaceOnUse" gradientTransform="translate(111.961 44.4735) scale(108.385 108.407)">
<stop stop-color="#F8AA15"/>
<stop offset="0.1" stop-color="#FF5094"/>
<stop offset="0.32" stop-color="#6A58FF"/>
<stop offset="1" stop-color="#453CB0"/>
</radialGradient>
<radialGradient id="paint8_radial_1161_11059" cx="0" cy="0" r="1" gradientUnits="userSpaceOnUse" gradientTransform="translate(111.961 44.4734) scale(108.385 108.407)">
<stop stop-color="#F8AA15"/>
<stop offset="0.1" stop-color="#FF5094"/>
<stop offset="0.32" stop-color="#6A58FF"/>
<stop offset="1" stop-color="#453CB0"/>
</radialGradient>
<radialGradient id="paint9_radial_1161_11059" cx="0" cy="0" r="1" gradientUnits="userSpaceOnUse" gradientTransform="translate(111.961 44.4734) scale(108.385 108.407)">
<stop stop-color="#F8AA15"/>
<stop offset="0.1" stop-color="#FF5094"/>
<stop offset="0.32" stop-color="#6A58FF"/>
<stop offset="1" stop-color="#453CB0"/>
</radialGradient>
<radialGradient id="paint10_radial_1161_11059" cx="0" cy="0" r="1" gradientUnits="userSpaceOnUse" gradientTransform="translate(111.961 44.4734) scale(108.385 108.407)">
<stop stop-color="#F8AA15"/>
<stop offset="0.1" stop-color="#FF5094"/>
<stop offset="0.32" stop-color="#6A58FF"/>
<stop offset="1" stop-color="#453CB0"/>
</radialGradient>
<radialGradient id="paint11_radial_1161_11059" cx="0" cy="0" r="1" gradientUnits="userSpaceOnUse" gradientTransform="translate(111.961 44.4735) scale(108.385 108.407)">
<stop stop-color="#F8AA15"/>
<stop offset="0.1" stop-color="#FF5094"/>
<stop offset="0.32" stop-color="#6A58FF"/>
<stop offset="1" stop-color="#453CB0"/>
</radialGradient>
<radialGradient id="paint12_radial_1161_11059" cx="0" cy="0" r="1" gradientUnits="userSpaceOnUse" gradientTransform="translate(111.961 44.4735) scale(108.385 108.407)">
<stop stop-color="#F8AA15"/>
<stop offset="0.1" stop-color="#FF5094"/>
<stop offset="0.32" stop-color="#6A58FF"/>
<stop offset="1" stop-color="#453CB0"/>
</radialGradient>
<clipPath id="clip0_1161_11059">
<rect width="201" height="26.1996" fill="white" transform="translate(24.3694 18.4371)"/>
</clipPath>
</defs>
</svg>
