<svg width="228" height="30" viewBox="0 0 228 30" fill="none" xmlns="http://www.w3.org/2000/svg">
<path d="M227.437 7.57158C226.793 6.88439 218.864 0.899593 217.959 0.237392C217.674 0.0249879 217.018 0 216.41 0C215.803 0 215.147 0.0249879 214.862 0.237392C213.957 0.899593 206.028 6.88439 205.384 7.57158C205.161 7.80897 204.764 8.1838 204.863 8.77104C204.9 8.98344 205.396 9.55818 205.916 10.1704C206.511 10.8701 207.193 11.5948 207.862 11.5948H210.909C211.764 11.5823 212.533 11.1575 213.301 10.8576C213.313 10.8701 213.338 10.8951 213.35 10.9076C213.04 11.1325 212.756 11.3699 212.446 11.5948C210.848 12.8192 209.15 14.1311 208.902 14.381C208.754 14.5434 208.481 14.7933 208.543 15.1931C208.568 15.3431 208.902 15.7304 209.262 16.1427C209.67 16.6175 210.129 17.1048 210.587 17.1048H222.209C222.667 17.1048 223.126 16.605 223.535 16.1427C223.894 15.7304 224.228 15.3431 224.253 15.1931C224.315 14.7933 224.055 14.5434 223.894 14.381C223.658 14.1311 221.961 12.8067 220.35 11.5948C220.041 11.3699 219.756 11.1325 219.446 10.9076C219.458 10.8951 219.483 10.8701 219.496 10.8576C220.276 11.1575 221.044 11.5823 221.887 11.5948H224.935C225.616 11.5948 226.285 10.8701 226.88 10.1704C227.4 9.55818 227.896 8.98344 227.933 8.77104C228.057 8.1838 227.66 7.80897 227.437 7.57158Z" fill="url(#paint0_radial_10571_140546)"/>
<path d="M217.007 19.0045C216.895 18.9295 216.647 18.917 216.412 18.917C216.177 18.917 215.929 18.9295 215.817 19.0045C215.47 19.2543 212.46 21.5408 212.212 21.7907C212.125 21.8782 211.976 22.0156 212.014 22.253C212.026 22.3404 212.212 22.5529 212.41 22.7902C212.633 23.0526 212.893 23.3275 213.154 23.3275H219.658C219.918 23.3275 220.166 23.0526 220.401 22.7902C220.6 22.5529 220.786 22.3404 220.798 22.253C220.835 22.0281 220.686 21.8907 220.6 21.7907C220.364 21.5408 217.341 19.2668 217.007 19.0045Z" fill="url(#paint1_radial_10571_140546)"/>
<path d="M4.26206 23.0656L0.260184 19.0299C0.0619484 18.83 0 18.6925 0 18.4926V18.4551C0 18.1928 0.0619479 18.0178 0.297353 17.7929L4.39835 13.6573C4.59659 13.4574 4.75765 13.3949 5.05501 13.3949H10.9649C11.5968 13.3949 11.9561 13.0326 11.9561 12.3954V10.7336C11.9561 10.0964 11.5968 9.73408 10.9649 9.73408H1.38765C1.15224 9.73408 0.991178 9.57166 0.991178 9.33426V6.89787C0.991178 6.66047 1.15224 6.49805 1.38765 6.49805H10.11C10.4074 6.49805 10.5684 6.56052 10.7667 6.76043L14.8677 10.8961C15.1031 11.1335 15.165 11.2584 15.165 11.4958V11.5583C15.165 11.8206 15.1031 11.9956 14.8677 12.2205L10.7667 16.3561C10.5684 16.556 10.4074 16.6185 10.11 16.6185H4.20012C3.56824 16.6185 3.20894 16.9558 3.20894 17.5805V17.9804L5.25324 20.0794H13.7774C14.0128 20.0794 14.1738 20.2418 14.1738 20.4792V22.9156C14.1738 23.153 14.0128 23.3154 13.7774 23.3154H4.91872C4.65854 23.3279 4.4603 23.2655 4.26206 23.0656Z" fill="url(#paint2_radial_10571_140546)"/>
<path d="M21.869 23.0658L17.768 18.9301C17.5698 18.7302 17.5078 18.5303 17.5078 18.2679V11.571C17.5078 11.3086 17.5698 11.1087 17.768 10.9088L21.869 6.77312C22.0672 6.57321 22.2655 6.51074 22.5257 6.51074H28.1754C28.4355 6.51074 28.6338 6.57321 28.832 6.77312L32.933 10.9088C33.1313 11.1087 33.1932 11.2711 33.1932 11.571V18.168C33.1932 18.4678 33.0941 18.6303 32.8958 18.8302L28.7081 23.0658C28.5099 23.2657 28.3117 23.3281 28.0515 23.3281H22.538C22.2655 23.3281 22.0672 23.2657 21.869 23.0658ZM27.2585 20.0921L29.9967 17.2559V10.7213C29.9967 10.0841 29.6373 9.72179 29.0055 9.72179H21.7079C21.0761 9.72179 20.7167 10.0841 20.7167 10.7213V19.0801C20.7167 19.7173 21.0761 20.0796 21.7079 20.0796H27.2585V20.0921Z" fill="url(#paint3_radial_10571_140546)"/>
<path d="M37.3301 22.9281V6.89787C37.3301 6.66047 37.4911 6.49805 37.7265 6.49805H40.1425C40.3779 6.49805 40.539 6.66047 40.539 6.89787V22.9281C40.539 23.1655 40.3779 23.3279 40.1425 23.3279H37.7265C37.4911 23.3279 37.3301 23.1655 37.3301 22.9281ZM49.3233 22.9281V10.7336C49.3233 10.0964 48.964 9.73408 48.3322 9.73408H41.5921C41.0594 9.73408 40.8611 9.23431 41.2576 8.83449L43.3019 6.77292C43.5002 6.57301 43.6984 6.51054 43.9586 6.51054H47.4897C47.7498 6.51054 47.9481 6.57301 48.1463 6.77292L52.2473 10.9086C52.4455 11.1085 52.5075 11.3084 52.5075 11.5708V22.9281C52.5075 23.1655 52.3464 23.3279 52.111 23.3279H49.695C49.4844 23.3279 49.3233 23.1655 49.3233 22.9281Z" fill="url(#paint4_radial_10571_140546)"/>
<path d="M72.1828 0.400795V22.9281C72.1828 23.1655 72.0217 23.3279 71.7863 23.3279H69.3703C69.1349 23.3279 68.9738 23.1655 68.9738 22.9281V10.6712C68.9738 9.909 68.6393 9.73408 67.9826 9.73408H60.6851C60.0532 9.73408 59.6939 10.0964 59.6939 10.7336V19.0923C59.6939 19.7296 60.0532 20.0919 60.6851 20.0919H67.9207C68.4535 20.0919 68.6517 20.5917 68.2552 20.9915L66.2109 23.0531C66.0127 23.253 65.8144 23.3154 65.5543 23.3154H61.5276C61.2674 23.3154 61.0692 23.253 60.8709 23.0531L56.7699 18.9174C56.5717 18.7175 56.5098 18.5551 56.5098 18.2552V11.5583C56.5098 11.2584 56.5717 11.096 56.7699 10.8961L60.8709 6.76042C61.0692 6.56051 61.2674 6.49804 61.5276 6.49804H66.4835C66.7808 6.49804 66.9419 6.56051 67.1401 6.76042L68.9862 8.62208V0.400795C68.9862 0.163403 69.1473 0.000976562 69.3827 0.000976562H71.7987C72.0217 0.000976562 72.1828 0.175897 72.1828 0.400795Z" fill="url(#paint5_radial_10571_140546)"/>
<path d="M91.6707 11.5708V22.9281C91.6707 23.1655 91.5096 23.3279 91.2742 23.3279H88.8582C88.6228 23.3279 88.4617 23.1655 88.4617 22.9281V17.1932C88.4617 16.4311 88.1272 16.2561 87.4706 16.2561H79.9996C79.3677 16.2561 79.0084 16.6185 79.0084 17.2557V19.0924C79.0084 19.7296 79.3677 20.0919 79.9996 20.0919H87.3962C87.929 20.0919 88.1272 20.5917 87.7307 20.9915L85.6988 23.0656C85.5006 23.2655 85.3024 23.3279 85.0422 23.3279H80.8421C80.5819 23.3279 80.3836 23.2655 80.1854 23.0656L76.0844 18.9299C75.8862 18.73 75.8242 18.5676 75.8242 18.2927V18.0303C75.8242 17.8304 75.8862 17.668 76.1216 17.4306L80.2226 13.295C80.4208 13.0951 80.5819 13.0326 80.8792 13.0326H85.9714C86.2688 13.0326 86.4298 13.0951 86.6281 13.295L88.4741 15.1566V10.7211C88.4741 10.0839 88.1148 9.72159 87.483 9.72159H80.3465C79.7146 9.72159 79.3553 10.0839 79.3553 10.7211V12.4204C79.3553 12.6578 79.1942 12.8202 78.9588 12.8202H76.5428C76.3074 12.8202 76.1464 12.6578 76.1464 12.4204V11.5583C76.1464 11.2959 76.2083 11.121 76.4437 10.8961L80.5447 6.76043C80.7429 6.56052 80.904 6.49805 81.2014 6.49805H86.6157C86.913 6.49805 87.0741 6.56052 87.2723 6.76043L91.3733 10.8961C91.6087 11.1335 91.6707 11.2959 91.6707 11.5708Z" fill="url(#paint6_radial_10571_140546)"/>
<path d="M100.132 23.0658L95.9321 18.8302C95.7339 18.6303 95.6348 18.4678 95.6348 18.168V11.571C95.6348 11.2711 95.6967 11.1087 95.8949 10.9088L99.9959 6.77312C100.194 6.57321 100.392 6.51074 100.653 6.51074H105.745C105.943 6.51074 106.079 6.54823 106.24 6.71065L110.304 10.7463C110.44 10.8838 110.502 11.0462 110.502 11.2461V12.4081C110.502 12.6455 110.341 12.8079 110.106 12.8079L107.69 12.8454C107.455 12.8454 107.293 12.683 107.293 12.4456V10.1091C107.293 9.87172 107.132 9.7093 106.897 9.7093L99.8225 9.74678C99.1906 9.74678 98.8313 10.1091 98.8313 10.7463V17.2809L101.569 20.1171H106.885C107.12 20.1171 107.281 19.9547 107.281 19.7173V17.3184C107.281 17.081 107.442 16.9185 107.678 16.9185H110.106C110.341 16.9185 110.502 17.081 110.502 17.3184V18.5553C110.502 18.7552 110.44 18.9176 110.304 19.0551L106.24 23.1532C106.079 23.3156 105.943 23.3531 105.745 23.3531H100.789C100.529 23.3281 100.33 23.2657 100.132 23.0658Z" fill="url(#paint7_radial_10571_140546)"/>
<path d="M114.133 22.9281V6.89787C114.133 6.66047 114.294 6.49805 114.529 6.49805H116.945C117.181 6.49805 117.342 6.66047 117.342 6.89787V22.9281C117.342 23.1655 117.181 23.3279 116.945 23.3279H114.529C114.306 23.3279 114.133 23.1655 114.133 22.9281ZM123.846 14.7693V10.7336C123.846 10.0964 123.487 9.73408 122.855 9.73408H118.395C117.862 9.73408 117.664 9.23431 118.06 8.83449L120.105 6.77292C120.303 6.57301 120.501 6.51054 120.761 6.51054H122.013C122.273 6.51054 122.471 6.57301 122.669 6.77292L126.77 10.9086C126.969 11.1085 127.031 11.3084 127.031 11.5708V14.7693C127.031 15.0067 126.869 15.1691 126.634 15.1691H124.218C124.007 15.1691 123.846 14.9942 123.846 14.7693Z" fill="url(#paint8_radial_10571_140546)"/>
<path d="M134.59 29.7251L130.489 25.5894C130.253 25.352 130.191 25.1896 130.191 24.9272V24.0651C130.191 23.8277 130.352 23.6653 130.588 23.6653H133.004C133.239 23.6653 133.4 23.8277 133.4 24.0651V25.7643C133.4 26.4016 133.76 26.7639 134.392 26.7639H140.871C141.503 26.7639 141.863 26.4016 141.863 25.7643V6.89787C141.863 6.66047 142.024 6.49805 142.259 6.49805H144.675C144.91 6.49805 145.071 6.66047 145.071 6.89787V24.9272C145.071 25.1896 145.01 25.3645 144.774 25.5894L140.673 29.7251C140.475 29.925 140.314 29.9874 140.016 29.9874H135.259C134.949 29.9874 134.788 29.925 134.59 29.7251ZM134.553 23.0656L130.452 18.9299C130.253 18.73 130.191 18.5301 130.191 18.2677V6.91036C130.191 6.67297 130.352 6.51054 130.588 6.51054H133.004C133.239 6.51054 133.4 6.67297 133.4 6.91036V19.1048C133.4 19.7421 133.76 20.1044 134.392 20.1044H140.772C141.305 20.1044 141.503 20.6042 141.107 21.004L139.062 23.0656C138.864 23.2655 138.666 23.3279 138.406 23.3279H135.234C134.949 23.3279 134.751 23.2655 134.553 23.0656Z" fill="url(#paint9_radial_10571_140546)"/>
<path d="M165.699 11.5708V18.2677C165.699 18.5676 165.637 18.73 165.439 18.9299L161.338 23.0656C161.14 23.2655 160.941 23.3279 160.681 23.3279H155.725C155.428 23.3279 155.267 23.2655 155.069 23.0656L153.223 21.2039V29.6001C153.223 29.8375 153.062 29.9999 152.826 29.9999H150.41C150.175 29.9999 150.014 29.8375 150.014 29.6001V6.89787C150.014 6.66047 150.175 6.49805 150.41 6.49805H152.826C153.062 6.49805 153.223 6.66047 153.223 6.89787V19.1548C153.223 19.917 153.557 20.0919 154.214 20.0919H161.511C162.143 20.0919 162.503 19.7296 162.503 19.0924V10.7336C162.503 10.0964 162.143 9.73408 161.511 9.73408H154.276C153.743 9.73408 153.545 9.23431 153.941 8.83449L155.986 6.77292C156.184 6.57301 156.382 6.51054 156.642 6.51054H160.669C160.929 6.51054 161.127 6.57301 161.325 6.77292L165.426 10.9086C165.637 11.096 165.699 11.2709 165.699 11.5708Z" fill="url(#paint10_radial_10571_140546)"/>
<path d="M181.596 18.8292L177.433 23.0648C177.234 23.2647 177.073 23.3272 176.776 23.3272H175.45C175.153 23.3272 174.992 23.2647 174.794 23.0648L170.693 18.9292C170.457 18.6918 170.395 18.5294 170.395 18.267V9.73334H168.252C168.017 9.73334 167.855 9.57091 167.855 9.33352V6.89712C167.855 6.65973 168.017 6.4973 168.252 6.4973H170.395V2.66154C170.395 2.42414 170.556 2.26172 170.792 2.26172H173.208C173.443 2.26172 173.604 2.42414 173.604 2.66154V19.0916C173.604 19.7288 173.964 20.0912 174.595 20.0912H175.946L179.378 16.6302C179.539 16.4678 179.774 16.4678 179.935 16.6302L181.583 18.267C181.757 18.4294 181.757 18.6668 181.596 18.8292ZM174.323 8.83375L176.367 6.77218C176.565 6.57227 176.764 6.5098 177.024 6.5098H180.889C181.125 6.5098 181.286 6.67223 181.286 6.90962V9.33352C181.286 9.57091 181.125 9.73334 180.889 9.73334H174.657C174.125 9.73334 173.926 9.23357 174.323 8.83375Z" fill="url(#paint11_radial_10571_140546)"/>
<path d="M187.742 23.0658L183.641 18.9301C183.443 18.7302 183.381 18.5303 183.381 18.2679V11.571C183.381 11.3086 183.443 11.1087 183.641 10.9088L187.742 6.77312C187.94 6.57321 188.139 6.51074 188.399 6.51074H194.048C194.309 6.51074 194.507 6.57321 194.705 6.77312L198.806 10.9088C199.004 11.1087 199.066 11.2711 199.066 11.571V18.168C199.066 18.4678 198.967 18.6303 198.769 18.8302L194.569 23.0658C194.371 23.2657 194.172 23.3281 193.912 23.3281H188.399C188.139 23.3281 187.94 23.2657 187.742 23.0658ZM193.119 20.0921L195.857 17.2559V10.7213C195.857 10.0841 195.498 9.72179 194.866 9.72179H187.569C186.937 9.72179 186.577 10.0841 186.577 10.7213V19.0801C186.577 19.7173 186.937 20.0796 187.569 20.0796H193.119V20.0921Z" fill="url(#paint12_radial_10571_140546)"/>
<defs>
<radialGradient id="paint0_radial_10571_140546" cx="0" cy="0" r="1" gradientUnits="userSpaceOnUse" gradientTransform="translate(216.334 24.4691) scale(28.174 28.4119)">
<stop stop-color="#F8AA15"/>
<stop offset="0.1" stop-color="#FF5094"/>
<stop offset="0.32" stop-color="#6A58FF"/>
<stop offset="1" stop-color="#453CB0"/>
</radialGradient>
<radialGradient id="paint1_radial_10571_140546" cx="0" cy="0" r="1" gradientUnits="userSpaceOnUse" gradientTransform="translate(216.412 25.8782) scale(25.5553 25.7711)">
<stop stop-color="#F8AA15"/>
<stop offset="0.1" stop-color="#FF5094"/>
<stop offset="0.32" stop-color="#6A58FF"/>
<stop offset="1" stop-color="#453CB0"/>
</radialGradient>
<radialGradient id="paint2_radial_10571_140546" cx="0" cy="0" r="1" gradientUnits="userSpaceOnUse" gradientTransform="translate(99.4538 29.8129) scale(123.063 124.127)">
<stop stop-color="#F8AA15"/>
<stop offset="0.1" stop-color="#FF5094"/>
<stop offset="0.32" stop-color="#6A58FF"/>
<stop offset="1" stop-color="#453CB0"/>
</radialGradient>
<radialGradient id="paint3_radial_10571_140546" cx="0" cy="0" r="1" gradientUnits="userSpaceOnUse" gradientTransform="translate(99.4549 29.8131) scale(123.063 124.127)">
<stop stop-color="#F8AA15"/>
<stop offset="0.1" stop-color="#FF5094"/>
<stop offset="0.32" stop-color="#6A58FF"/>
<stop offset="1" stop-color="#453CB0"/>
</radialGradient>
<radialGradient id="paint4_radial_10571_140546" cx="0" cy="0" r="1" gradientUnits="userSpaceOnUse" gradientTransform="translate(99.4536 29.8129) scale(123.063 124.127)">
<stop stop-color="#F8AA15"/>
<stop offset="0.1" stop-color="#FF5094"/>
<stop offset="0.32" stop-color="#6A58FF"/>
<stop offset="1" stop-color="#453CB0"/>
</radialGradient>
<radialGradient id="paint5_radial_10571_140546" cx="0" cy="0" r="1" gradientUnits="userSpaceOnUse" gradientTransform="translate(99.454 29.8129) scale(123.063 124.127)">
<stop stop-color="#F8AA15"/>
<stop offset="0.1" stop-color="#FF5094"/>
<stop offset="0.32" stop-color="#6A58FF"/>
<stop offset="1" stop-color="#453CB0"/>
</radialGradient>
<radialGradient id="paint6_radial_10571_140546" cx="0" cy="0" r="1" gradientUnits="userSpaceOnUse" gradientTransform="translate(99.4529 29.8129) scale(123.063 124.127)">
<stop stop-color="#F8AA15"/>
<stop offset="0.1" stop-color="#FF5094"/>
<stop offset="0.32" stop-color="#6A58FF"/>
<stop offset="1" stop-color="#453CB0"/>
</radialGradient>
<radialGradient id="paint7_radial_10571_140546" cx="0" cy="0" r="1" gradientUnits="userSpaceOnUse" gradientTransform="translate(99.4523 29.8131) scale(123.063 124.127)">
<stop stop-color="#F8AA15"/>
<stop offset="0.1" stop-color="#FF5094"/>
<stop offset="0.32" stop-color="#6A58FF"/>
<stop offset="1" stop-color="#453CB0"/>
</radialGradient>
<radialGradient id="paint8_radial_10571_140546" cx="0" cy="0" r="1" gradientUnits="userSpaceOnUse" gradientTransform="translate(99.4525 29.8129) scale(123.063 124.127)">
<stop stop-color="#F8AA15"/>
<stop offset="0.1" stop-color="#FF5094"/>
<stop offset="0.32" stop-color="#6A58FF"/>
<stop offset="1" stop-color="#453CB0"/>
</radialGradient>
<radialGradient id="paint9_radial_10571_140546" cx="0" cy="0" r="1" gradientUnits="userSpaceOnUse" gradientTransform="translate(99.454 29.8129) scale(123.063 124.127)">
<stop stop-color="#F8AA15"/>
<stop offset="0.1" stop-color="#FF5094"/>
<stop offset="0.32" stop-color="#6A58FF"/>
<stop offset="1" stop-color="#453CB0"/>
</radialGradient>
<radialGradient id="paint10_radial_10571_140546" cx="0" cy="0" r="1" gradientUnits="userSpaceOnUse" gradientTransform="translate(99.4527 29.8129) scale(123.063 124.127)">
<stop stop-color="#F8AA15"/>
<stop offset="0.1" stop-color="#FF5094"/>
<stop offset="0.32" stop-color="#6A58FF"/>
<stop offset="1" stop-color="#453CB0"/>
</radialGradient>
<radialGradient id="paint11_radial_10571_140546" cx="0" cy="0" r="1" gradientUnits="userSpaceOnUse" gradientTransform="translate(99.4532 29.8122) scale(123.063 124.127)">
<stop stop-color="#F8AA15"/>
<stop offset="0.1" stop-color="#FF5094"/>
<stop offset="0.32" stop-color="#6A58FF"/>
<stop offset="1" stop-color="#453CB0"/>
</radialGradient>
<radialGradient id="paint12_radial_10571_140546" cx="0" cy="0" r="1" gradientUnits="userSpaceOnUse" gradientTransform="translate(99.4544 29.8131) scale(123.063 124.127)">
<stop stop-color="#F8AA15"/>
<stop offset="0.1" stop-color="#FF5094"/>
<stop offset="0.32" stop-color="#6A58FF"/>
<stop offset="1" stop-color="#453CB0"/>
</radialGradient>
</defs>
</svg>
