<svg width="37" height="36" viewBox="0 0 37 36" fill="none" xmlns="http://www.w3.org/2000/svg">
<path d="M33.9682 13.677C33.8275 13.2446 33.562 12.8635 33.2052 12.5817C32.8483 12.3 32.4161 12.1301 31.9628 12.0936L23.666 11.4242L20.4625 3.67715C20.2893 3.25502 19.9944 2.89394 19.6154 2.63981C19.2365 2.38569 18.7905 2.25 18.3342 2.25C17.8779 2.25 17.4319 2.38569 17.0529 2.63981C16.6739 2.89394 16.3791 3.25502 16.2058 3.67715L13.0052 11.4228L4.70409 12.0936C4.25012 12.1319 3.81758 12.3035 3.46065 12.5866C3.10372 12.8697 2.83829 13.2519 2.6976 13.6852C2.55691 14.1186 2.54723 14.5838 2.66976 15.0226C2.7923 15.4614 3.0416 15.8542 3.38644 16.152L9.71456 21.6125L7.78659 29.7771C7.67877 30.2207 7.70517 30.6863 7.86244 31.1149C8.01972 31.5434 8.30078 31.9155 8.66994 32.184C9.03911 32.4526 9.47973 32.6053 9.93587 32.623C10.392 32.6406 10.8431 32.5223 11.2319 32.2831L18.3335 27.9125L25.4392 32.2831C25.8282 32.5195 26.2784 32.6355 26.7331 32.6165C27.1878 32.5976 27.6268 32.4445 27.9947 32.1766C28.3626 31.9086 28.643 31.5378 28.8006 31.1109C28.9582 30.6839 28.9859 30.2199 28.8803 29.7771L26.9453 21.6111L33.2735 16.1506C33.6211 15.8533 33.8727 15.4596 33.9963 15.0193C34.12 14.5789 34.1102 14.1118 33.9682 13.677ZM31.811 14.4462L24.9625 20.3525C24.8064 20.4871 24.6902 20.662 24.6267 20.8582C24.5632 21.0544 24.5548 21.2642 24.6025 21.4648L26.695 30.2961C26.7004 30.3082 26.701 30.322 26.6965 30.3346C26.6921 30.3471 26.683 30.3575 26.6711 30.3636C26.6458 30.3832 26.6388 30.379 26.6177 30.3636L18.9227 25.6315C18.7455 25.5226 18.5415 25.4649 18.3335 25.4649C18.1254 25.4649 17.9215 25.5226 17.7442 25.6315L10.0492 30.3664C10.0282 30.379 10.0225 30.3832 9.99581 30.3664C9.98394 30.3603 9.97485 30.3499 9.9704 30.3374C9.96595 30.3248 9.96649 30.311 9.97191 30.2989L12.0644 21.4676C12.1121 21.267 12.1037 21.0572 12.0403 20.861C11.9768 20.6648 11.8606 20.4899 11.7044 20.3553L4.85597 14.449C4.83909 14.435 4.82363 14.4223 4.83769 14.3787C4.85175 14.3351 4.863 14.3407 4.88409 14.3379L13.8728 13.6123C14.079 13.5946 14.2763 13.5204 14.443 13.3979C14.6098 13.2753 14.7395 13.1091 14.8178 12.9176L18.28 4.53496C18.2913 4.51105 18.2955 4.4998 18.3293 4.4998C18.363 4.4998 18.3672 4.51105 18.3785 4.53496L21.8491 12.9176C21.9282 13.1092 22.0587 13.2752 22.2262 13.3973C22.3937 13.5194 22.5917 13.5928 22.7983 13.6095L31.7871 14.3351C31.8082 14.3351 31.8208 14.3351 31.8335 14.3759C31.8461 14.4167 31.8335 14.4321 31.811 14.4462Z" fill="url(#paint0_linear_1148_57074)"/>
<defs>
<linearGradient id="paint0_linear_1148_57074" x1="18.3334" y1="2.25" x2="18.3334" y2="32.6247" gradientUnits="userSpaceOnUse">
<stop stop-color="#276EFF"/>
<stop offset="1" stop-color="#FF55FF"/>
</linearGradient>
</defs>
</svg>
