<svg width="115" height="35" viewBox="0 0 115 35" fill="none" xmlns="http://www.w3.org/2000/svg">
<path fill-rule="evenodd" clip-rule="evenodd" d="M32.7708 33.8624C34.3494 33.8624 35.8558 33.2017 36.9244 32.0395L46.5152 21.6123C48.9109 19.0073 47.0624 14.7994 43.523 14.7994H38.5459L40.4252 12.7654C40.5666 12.6122 40.6966 12.4495 40.8137 12.2785L45.4909 7.19365C47.9959 4.47014 46.0631 0.0698242 42.3616 0.0698242H14.7436C13.2164 0.0698242 11.7593 0.709186 10.7257 1.83276L1.08063 12.3204C-1.3151 14.9251 0.532767 19.133 4.07279 19.133H7.06852H7.1521L9.08496 19.1494L1.8185 27.0502C-0.577233 29.6545 1.27135 33.8624 4.81065 33.8624H32.7708ZM14.7779 5.60407L7.41067 13.6151L12.32 13.5987H15.7093H21.7586L16.1814 19.6266L15.5164 20.3337L8.16353 28.3281H32.8123L40.1702 20.3337H25.8944L30.603 15.2058L36.3951 8.98009L39.4316 5.60407H14.7779Z" fill="url(#paint0_linear_10913_142994)"/>
<path d="M114.9 4.72241V28.7109H110.502V27.4109C109.003 28.6109 107.17 29.2102 105.005 29.2102C102.805 29.2102 100.873 28.3773 99.274 26.7116C97.6418 25.0459 96.8418 22.9466 96.8418 20.4144C96.8418 17.8823 97.6418 15.7837 99.274 14.118C100.907 12.452 102.805 11.5857 105.005 11.5857C107.203 11.5857 109.036 12.2187 110.502 13.4181V4.72241H114.9ZM105.771 25.3788C107.003 25.3788 108.103 24.9459 109.069 24.013C110.002 23.0802 110.502 21.8809 110.502 20.4144C110.502 18.9487 110.002 17.7494 109.069 16.8166C108.103 15.8837 107.003 15.4173 105.771 15.4173C104.405 15.4173 103.272 15.8837 102.406 16.783C101.54 17.7159 101.106 18.9151 101.106 20.4144C101.106 21.9473 101.54 23.1466 102.406 24.0459C103.272 24.9459 104.405 25.3788 105.771 25.3788Z" fill="#212121"/>
<path d="M88.6023 11.585C90.6016 11.585 92.2009 12.2513 93.4337 13.5506C94.633 14.8501 95.2659 16.5158 95.2659 18.5816V28.7095H90.868V19.5144C90.868 18.348 90.5351 17.4151 89.9351 16.6823C89.3358 15.983 88.503 15.6166 87.503 15.6166C84.738 15.6166 83.3715 17.5487 83.3715 21.3466V28.7095H78.9736V12.0847H83.3715V13.5837C84.7044 12.2512 86.4373 11.585 88.6023 11.585Z" fill="#212121"/>
<path d="M76.6295 25.1123V28.7109H61.8701V25.8458L70.7995 15.6836H62.1037V12.0857H76.2295V15.0179L67.3009 25.1123H76.6295Z" fill="#212121"/>
<defs>
<linearGradient id="paint0_linear_10913_142994" x1="12.2828" y1="-0.391535" x2="42.8966" y2="32.251" gradientUnits="userSpaceOnUse">
<stop stop-color="#10C7FF"/>
<stop offset="0.558095" stop-color="#5122D8"/>
<stop offset="1" stop-color="#FBB2FC"/>
</linearGradient>
</defs>
</svg>
