<svg width="32" height="28" viewBox="0 0 32 28" fill="none" xmlns="http://www.w3.org/2000/svg">
<path d="M31.6699 14.7031L27.1699 3.45312C27.0708 3.20532 26.8868 3.00082 26.6509 2.87614C26.4149 2.75146 26.1423 2.71473 25.8817 2.7725L17.125 4.71875V1.625C17.125 1.32663 17.0065 1.04048 16.7955 0.829505C16.5845 0.618527 16.2984 0.5 16 0.5C15.7017 0.5 15.4155 0.618527 15.2045 0.829505C14.9935 1.04048 14.875 1.32663 14.875 1.625V5.22219L5.63033 7.27672C5.45209 7.31609 5.28611 7.39824 5.14671 7.51609C5.0073 7.63393 4.89867 7.78392 4.83018 7.95312V7.96156L0.330178 19.2031C0.276345 19.3372 0.249121 19.4805 0.250022 19.625C0.250022 22.903 3.70096 24.125 5.87502 24.125C8.04908 24.125 11.5 22.903 11.5 19.625C11.5009 19.4805 11.4737 19.3372 11.4199 19.2031L7.41065 9.18641L14.875 7.53125V25.25H12.625C12.3267 25.25 12.0405 25.3685 11.8295 25.5795C11.6185 25.7905 11.5 26.0766 11.5 26.375C11.5 26.6734 11.6185 26.9595 11.8295 27.1705C12.0405 27.3815 12.3267 27.5 12.625 27.5H19.375C19.6734 27.5 19.9595 27.3815 20.1705 27.1705C20.3815 26.9595 20.5 26.6734 20.5 26.375C20.5 26.0766 20.3815 25.7905 20.1705 25.5795C19.9595 25.3685 19.6734 25.25 19.375 25.25H17.125V7.02781L24.2969 5.43594L20.5802 14.7031C20.5263 14.8372 20.4991 14.9805 20.5 15.125C20.5 18.403 23.951 19.625 26.125 19.625C28.2991 19.625 31.75 18.403 31.75 15.125C31.7509 14.9805 31.7237 14.8372 31.6699 14.7031ZM5.87502 21.875C4.81612 21.875 2.6744 21.3673 2.50987 19.8162L5.87502 11.4041L9.24018 19.8162C9.07565 21.3673 6.93393 21.875 5.87502 21.875ZM26.125 17.375C25.0661 17.375 22.9244 16.8673 22.7599 15.3162L26.125 6.90406L29.4902 15.3162C29.3256 16.8673 27.1839 17.375 26.125 17.375Z" fill="url(#paint0_linear_1371_71275)"/>
<defs>
<linearGradient id="paint0_linear_1371_71275" x1="16" y1="0.5" x2="16" y2="27.5" gradientUnits="userSpaceOnUse">
<stop stop-color="#276EFF"/>
<stop offset="1" stop-color="#FF55FF"/>
</linearGradient>
</defs>
</svg>
