<svg width="28" height="29" viewBox="0 0 28 29" fill="none" xmlns="http://www.w3.org/2000/svg">
<path d="M25.4167 0H2.91675C2.32001 0 1.74771 0.237053 1.32576 0.65901C0.903801 1.08097 0.666748 1.65326 0.666748 2.25V10.125C0.666748 17.5387 4.2555 22.0317 7.26628 24.4955C10.5091 27.1477 13.735 28.0477 13.8757 28.0856C14.069 28.1382 14.2729 28.1382 14.4663 28.0856C14.6069 28.0477 17.8286 27.1477 21.0757 24.4955C24.078 22.0317 27.6667 17.5387 27.6667 10.125V2.25C27.6667 1.65326 27.4297 1.08097 27.0077 0.65901C26.5858 0.237053 26.0135 0 25.4167 0ZM25.4167 10.125C25.4167 15.338 23.4958 19.5694 19.7074 22.6997C18.0582 24.0577 16.1827 25.1145 14.1667 25.8216C12.1772 25.1268 10.3248 24.0888 8.69362 22.7545C4.86019 19.6186 2.91675 15.3703 2.91675 10.125V2.25H25.4167V10.125ZM7.74581 14.2959C7.53471 14.0848 7.41612 13.7985 7.41612 13.5C7.41612 13.2015 7.53471 12.9152 7.74581 12.7041C7.95691 12.493 8.24321 12.3744 8.54175 12.3744C8.84028 12.3744 9.12659 12.493 9.33769 12.7041L11.9167 15.2845L18.9958 8.20406C19.1003 8.09954 19.2244 8.01663 19.361 7.96006C19.4976 7.90349 19.6439 7.87437 19.7917 7.87437C19.9396 7.87437 20.0859 7.90349 20.2225 7.96006C20.3591 8.01663 20.4832 8.09954 20.5877 8.20406C20.6922 8.30859 20.7751 8.43267 20.8317 8.56924C20.8883 8.70581 20.9174 8.85218 20.9174 9C20.9174 9.14782 20.8883 9.29419 20.8317 9.43076C20.7751 9.56733 20.6922 9.69141 20.5877 9.79594L12.7127 17.6709C12.6082 17.7755 12.4841 17.8585 12.3476 17.9151C12.211 17.9717 12.0646 18.0009 11.9167 18.0009C11.7689 18.0009 11.6225 17.9717 11.4859 17.9151C11.3494 17.8585 11.2253 17.7755 11.1208 17.6709L7.74581 14.2959Z" fill="url(#paint0_linear_1371_71283)"/>
<defs>
<linearGradient id="paint0_linear_1371_71283" x1="14.1667" y1="0" x2="14.1667" y2="28.1251" gradientUnits="userSpaceOnUse">
<stop stop-color="#276EFF"/>
<stop offset="1" stop-color="#FF55FF"/>
</linearGradient>
</defs>
</svg>
