<svg width="249" height="27" viewBox="0 0 249 27" fill="none" xmlns="http://www.w3.org/2000/svg">
<path d="M213.422 5.70154C213.25 5.52909 213.066 5.45365 212.84 5.45365H207.818C207.602 5.45365 207.44 5.49676 207.257 5.71232L206.179 6.7901C206.007 6.94099 205.942 7.13499 206.018 7.31821C206.082 7.49065 206.255 7.59843 206.46 7.59843H213.217C213.907 7.59843 214.349 8.04032 214.349 8.7301V16.8889C214.349 17.5895 213.896 18.0529 213.217 18.0529H206.61C205.856 18.0529 205.446 17.6541 205.446 16.9212V5.89554C205.446 5.63687 205.252 5.44287 204.994 5.44287H203.787C203.528 5.44287 203.334 5.63687 203.334 5.89554V25.5758C203.334 25.8345 203.528 26.0285 203.787 26.0285H204.994C205.252 26.0285 205.446 25.8345 205.446 25.5758V18.678L206.707 19.939C206.858 20.0899 207.052 20.1653 207.289 20.1653H212.84C213.045 20.1653 213.228 20.1007 213.411 19.9498L216.246 17.1152L216.257 17.1045C216.386 16.9428 216.472 16.7919 216.472 16.5332V9.09655C216.472 8.85943 216.397 8.66543 216.246 8.51454L213.422 5.70154Z" fill="url(#paint0_radial_10913_143080)"/>
<path d="M229.373 5.7015C229.19 5.51828 229.028 5.45361 228.791 5.45361H223.154C222.906 5.45361 222.744 5.52906 222.594 5.71228L219.781 8.52529C219.597 8.70851 219.533 8.87018 219.533 9.10729V10.3144C219.533 10.5731 219.727 10.7671 219.985 10.7671H221.192C221.451 10.7671 221.645 10.5731 221.645 10.3144V8.73007C221.645 8.04029 222.087 7.5984 222.777 7.5984H229.179C229.901 7.5984 230.343 8.02951 230.343 8.73007V12.9873L229.093 11.7263C228.942 11.5754 228.748 11.5 228.511 11.5H223.046C222.809 11.5 222.615 11.5754 222.464 11.7263L219.64 14.5501C219.457 14.7333 219.393 14.8842 219.393 15.0997V16.544C219.393 16.8026 219.468 16.9535 219.608 17.1152L222.443 19.9498L222.453 19.9605C222.637 20.1006 222.82 20.1761 223.025 20.1761H227.961C228.166 20.1761 228.317 20.1438 228.532 19.9605L229.631 18.8612C229.782 18.6888 229.836 18.484 229.761 18.3223C229.685 18.1606 229.524 18.0744 229.308 18.0744H222.637C221.958 18.0744 221.505 17.611 221.505 16.9104V14.7656C221.505 14.0759 221.947 13.634 222.637 13.634H229.19C230.149 13.634 230.354 14.2375 230.354 14.7333V19.7234C230.354 19.9821 230.548 20.1761 230.806 20.1761H232.013C232.272 20.1761 232.466 19.9821 232.466 19.7234V9.11807C232.466 8.88095 232.401 8.71929 232.218 8.53607L229.373 5.7015Z" fill="url(#paint1_radial_10913_143080)"/>
<path d="M248.557 5.44287H247.35C247.091 5.44287 246.897 5.63687 246.897 5.89554V22.752C246.897 23.4526 246.445 23.916 245.766 23.916H239.806C239.127 23.916 238.674 23.4526 238.674 22.752V21.1677C238.674 20.909 238.48 20.715 238.221 20.715H237.014C236.756 20.715 236.562 20.909 236.562 21.1677V22.3964C236.562 22.6227 236.637 22.8059 236.809 22.9784L239.601 25.8021L239.612 25.8129C239.773 25.9423 239.924 26.0285 240.183 26.0285H245.378C245.615 26.0285 245.777 25.9638 245.927 25.8021L248.751 22.9784C248.924 22.8059 248.999 22.6227 248.999 22.3964V5.89554C249.01 5.63687 248.827 5.44287 248.557 5.44287Z" fill="url(#paint2_radial_10913_143080)"/>
<path d="M239.579 19.939L239.59 19.9498C239.773 20.0899 239.946 20.1653 240.161 20.1653H244.505C244.71 20.1653 244.861 20.133 245.076 19.9498L246.175 18.8505C246.326 18.678 246.38 18.4732 246.305 18.3116C246.229 18.1499 246.068 18.0637 245.852 18.0637H239.806C239.094 18.0637 238.642 17.611 238.642 16.8997V5.89554C238.642 5.63687 238.448 5.44287 238.189 5.44287H236.982C236.723 5.44287 236.529 5.63687 236.529 5.89554V16.5332C236.529 16.7596 236.605 16.9428 236.777 17.1152L239.579 19.939Z" fill="url(#paint3_radial_10913_143080)"/>
<path d="M197.848 6.53135C197.288 5.93857 190.39 0.776001 189.603 0.204778C189.355 0.0215549 188.784 0 188.256 0C187.728 0 187.156 0.0215549 186.909 0.204778C186.122 0.776001 179.224 5.93857 178.664 6.53135C178.47 6.73613 178.125 7.05946 178.211 7.56602C178.243 7.74924 178.674 8.24502 179.127 8.77313C179.644 9.37669 180.237 10.0018 180.819 10.0018H183.47C184.214 9.99102 184.882 9.62458 185.551 9.36591C185.561 9.37669 185.583 9.39824 185.594 9.40902C185.324 9.60302 185.076 9.8078 184.807 10.0018C183.417 11.058 181.94 12.1897 181.724 12.4052C181.595 12.5454 181.358 12.7609 181.412 13.1058C181.433 13.2351 181.724 13.5693 182.037 13.9249C182.393 14.3345 182.791 14.7548 183.19 14.7548H193.3C193.699 14.7548 194.097 14.3237 194.453 13.9249C194.766 13.5693 195.057 13.2351 195.078 13.1058C195.132 12.7609 194.906 12.5454 194.766 12.4052C194.561 12.1897 193.084 11.0472 191.683 10.0018C191.414 9.8078 191.166 9.60302 190.896 9.40902C190.907 9.39824 190.929 9.37669 190.939 9.36591C191.618 9.62458 192.287 9.99102 193.02 10.0018H195.671C196.264 10.0018 196.846 9.37669 197.363 8.77313C197.816 8.24502 198.247 7.74924 198.279 7.56602C198.387 7.05946 198.042 6.73613 197.848 6.53135Z" fill="url(#paint4_radial_10913_143080)"/>
<path d="M188.773 16.3931C188.676 16.3284 188.461 16.3176 188.256 16.3176C188.051 16.3176 187.836 16.3284 187.739 16.3931C187.437 16.6086 184.818 18.581 184.602 18.7965C184.527 18.872 184.398 18.9905 184.43 19.1953C184.441 19.2707 184.602 19.454 184.775 19.6587C184.969 19.8851 185.195 20.1222 185.421 20.1222H191.08C191.306 20.1222 191.522 19.8851 191.726 19.6587C191.899 19.454 192.061 19.2707 192.071 19.1953C192.104 19.0013 191.974 18.8827 191.899 18.7965C191.694 18.581 189.064 16.6194 188.773 16.3931Z" fill="url(#paint5_radial_10913_143080)"/>
<path d="M3.70756 19.8959L0.226334 16.4146C0.0538888 16.2422 0 16.1236 0 15.9512V15.9188C0 15.6925 0.0538884 15.5416 0.258667 15.3476L3.82612 11.7802C3.99856 11.6077 4.13868 11.5538 4.39734 11.5538H9.53835C10.088 11.5538 10.4006 11.2413 10.4006 10.6916V9.25817C10.4006 8.7085 10.088 8.39594 9.53835 8.39594H1.20711C1.00234 8.39594 0.862224 8.25583 0.862224 8.05105V5.94938C0.862224 5.7446 1.00234 5.60449 1.20711 5.60449H8.79469C9.05335 5.60449 9.19346 5.65838 9.36591 5.83083L12.9334 9.39828C13.1381 9.60306 13.192 9.71083 13.192 9.91561V9.9695C13.192 10.1958 13.1381 10.3467 12.9334 10.5407L9.36591 14.1082C9.19346 14.2806 9.05335 14.3345 8.79469 14.3345H3.65367C3.10401 14.3345 2.79145 14.6255 2.79145 15.1644V15.5093L4.56979 17.32H11.9849C12.1897 17.32 12.3298 17.4601 12.3298 17.6649V19.7665C12.3298 19.9713 12.1897 20.1114 11.9849 20.1114H4.27879C4.05245 20.1222 3.88001 20.0683 3.70756 19.8959Z" fill="url(#paint6_radial_10913_143080)"/>
<path d="M19.0233 19.8958L15.4558 16.3284C15.2834 16.1559 15.2295 15.9835 15.2295 15.7571V9.98024C15.2295 9.75391 15.2834 9.58147 15.4558 9.40902L19.0233 5.84157C19.1957 5.66912 19.3682 5.61523 19.5945 5.61523H24.5092C24.7355 5.61523 24.908 5.66912 25.0804 5.84157L28.6479 9.40902C28.8203 9.58147 28.8742 9.72158 28.8742 9.98024V15.6709C28.8742 15.9296 28.788 16.0697 28.6155 16.2421L24.9726 19.8958C24.8002 20.0683 24.6277 20.1222 24.4014 20.1222H19.6053C19.3682 20.1222 19.1957 20.0683 19.0233 19.8958ZM23.7116 17.3307L26.0935 14.8841V9.24736C26.0935 8.69769 25.781 8.38513 25.2313 8.38513H18.8832C18.3335 8.38513 18.0209 8.69769 18.0209 9.24736V16.4577C18.0209 17.0074 18.3335 17.3199 18.8832 17.3199H23.7116V17.3307Z" fill="url(#paint7_radial_10913_143080)"/>
<path d="M32.4736 19.7773V5.94938C32.4736 5.7446 32.6137 5.60449 32.8185 5.60449H34.9202C35.125 5.60449 35.2651 5.7446 35.2651 5.94938V19.7773C35.2651 19.9821 35.125 20.1222 34.9202 20.1222H32.8185C32.6137 20.1222 32.4736 19.9821 32.4736 19.7773ZM42.9065 19.7773V9.25817C42.9065 8.7085 42.594 8.39594 42.0443 8.39594H36.1812C35.7178 8.39594 35.5453 7.96483 35.8902 7.61994L37.6685 5.8416C37.841 5.66916 38.0134 5.61527 38.2398 5.61527H41.3114C41.5378 5.61527 41.7102 5.66916 41.8827 5.8416L45.4501 9.40906C45.6226 9.5815 45.6764 9.75394 45.6764 9.98028V19.7773C45.6764 19.9821 45.5363 20.1222 45.3316 20.1222H43.2299C43.0467 20.1222 42.9065 19.9821 42.9065 19.7773Z" fill="url(#paint8_radial_10913_143080)"/>
<path d="M62.7911 0.344889V19.7773C62.7911 19.982 62.651 20.1222 62.4463 20.1222H60.3446C60.1398 20.1222 59.9997 19.982 59.9997 19.7773V9.20424C59.9997 8.5468 59.7087 8.39591 59.1375 8.39591H52.7893C52.2397 8.39591 51.9271 8.70846 51.9271 9.25813V16.4685C51.9271 17.0182 52.2397 17.3307 52.7893 17.3307H59.0836C59.547 17.3307 59.7195 17.7618 59.3746 18.1067L57.5962 19.885C57.4238 20.0575 57.2514 20.1114 57.025 20.1114H53.5222C53.2959 20.1114 53.1235 20.0575 52.951 19.885L49.3836 16.3176C49.2111 16.1451 49.1572 16.005 49.1572 15.7464V9.96947C49.1572 9.7108 49.2111 9.57069 49.3836 9.39824L52.951 5.83079C53.1235 5.65835 53.2959 5.60446 53.5222 5.60446H57.8334C58.092 5.60446 58.2321 5.65835 58.4046 5.83079L60.0105 7.43668V0.344889C60.0105 0.140111 60.1506 0 60.3554 0H62.457C62.651 0 62.7911 0.150889 62.7911 0.344889Z" fill="url(#paint9_radial_10913_143080)"/>
<path d="M79.7448 9.98028V19.7773C79.7448 19.9821 79.6047 20.1222 79.3999 20.1222H77.2982C77.0934 20.1222 76.9533 19.9821 76.9533 19.7773V14.8303C76.9533 14.1728 76.6623 14.022 76.0911 14.022H69.5921C69.0424 14.022 68.7299 14.3345 68.7299 14.8842V16.4685C68.7299 17.0182 69.0424 17.3307 69.5921 17.3307H76.0264C76.4899 17.3307 76.6623 17.7619 76.3174 18.1067L74.5499 19.8959C74.3774 20.0683 74.205 20.1222 73.9786 20.1222H70.325C70.0986 20.1222 69.9262 20.0683 69.7537 19.8959L66.1863 16.3284C66.0139 16.156 65.96 16.0158 65.96 15.7787V15.5524C65.96 15.38 66.0139 15.2398 66.2186 15.0351L69.7861 11.4676C69.9585 11.2952 70.0986 11.2413 70.3573 11.2413H74.787C75.0457 11.2413 75.1858 11.2952 75.3582 11.4676L76.9641 13.0735V9.24739C76.9641 8.69772 76.6515 8.38517 76.1019 8.38517H69.8939C69.3442 8.38517 69.0316 8.69772 69.0316 9.24739V10.7132C69.0316 10.9179 68.8915 11.0581 68.6867 11.0581H66.5851C66.3803 11.0581 66.2402 10.9179 66.2402 10.7132V9.9695C66.2402 9.74317 66.2941 9.59228 66.4989 9.39828L70.0663 5.83083C70.2388 5.65838 70.3789 5.60449 70.6375 5.60449H75.3474C75.6061 5.60449 75.7462 5.65838 75.9187 5.83083L79.4861 9.39828C79.6909 9.60306 79.7448 9.74317 79.7448 9.98028Z" fill="url(#paint10_radial_10913_143080)"/>
<path d="M87.1057 19.8958L83.452 16.2421C83.2796 16.0697 83.1934 15.9296 83.1934 15.6709V9.98024C83.1934 9.72158 83.2472 9.58147 83.4197 9.40902L86.9871 5.84157C87.1596 5.66912 87.332 5.61523 87.5584 5.61523H91.988C92.1605 5.61523 92.279 5.64757 92.4192 5.78768L95.9543 9.26891C96.0728 9.38747 96.1267 9.52758 96.1267 9.70002V10.7024C96.1267 10.9071 95.9866 11.0472 95.7818 11.0472L93.6802 11.0796C93.4754 11.0796 93.3353 10.9395 93.3353 10.7347V8.71924C93.3353 8.51446 93.1952 8.37435 92.9904 8.37435L86.8363 8.40669C86.2866 8.40669 85.974 8.71924 85.974 9.26891V14.9057L88.3559 17.3523H92.9796C93.1844 17.3523 93.3245 17.2122 93.3245 17.0074V14.938C93.3245 14.7333 93.4646 14.5931 93.6694 14.5931H95.7818C95.9866 14.5931 96.1267 14.7333 96.1267 14.938V16.005C96.1267 16.1775 96.0728 16.3176 95.9543 16.4361L92.4192 19.9713C92.279 20.1114 92.1605 20.1437 91.988 20.1437H87.6769C87.4506 20.1222 87.2781 20.0683 87.1057 19.8958Z" fill="url(#paint11_radial_10913_143080)"/>
<path d="M99.2852 19.7773V5.94938C99.2852 5.7446 99.4253 5.60449 99.63 5.60449H101.732C101.936 5.60449 102.077 5.7446 102.077 5.94938V19.7773C102.077 19.9821 101.936 20.1222 101.732 20.1222H99.63C99.436 20.1222 99.2852 19.9821 99.2852 19.7773ZM107.735 12.7394V9.25817C107.735 8.7085 107.422 8.39594 106.873 8.39594H102.993C102.529 8.39594 102.357 7.96483 102.702 7.61994L104.48 5.8416C104.652 5.66916 104.825 5.61527 105.051 5.61527H106.14C106.366 5.61527 106.539 5.66916 106.711 5.8416L110.279 9.40906C110.451 9.5815 110.505 9.75394 110.505 9.98028V12.7394C110.505 12.9442 110.365 13.0843 110.16 13.0843H108.058C107.875 13.0843 107.735 12.9334 107.735 12.7394Z" fill="url(#paint12_radial_10913_143080)"/>
<path d="M117.079 25.6404L113.512 22.073C113.307 21.8682 113.253 21.7281 113.253 21.5017V20.7581C113.253 20.5533 113.393 20.4132 113.598 20.4132H115.699C115.904 20.4132 116.044 20.5533 116.044 20.7581V22.2239C116.044 22.7735 116.357 23.0861 116.907 23.0861H122.543C123.093 23.0861 123.406 22.7735 123.406 22.2239V5.94938C123.406 5.7446 123.546 5.60449 123.751 5.60449H125.852C126.057 5.60449 126.197 5.7446 126.197 5.94938V21.5017C126.197 21.7281 126.143 21.879 125.938 22.073L122.371 25.6404C122.199 25.8129 122.058 25.8668 121.8 25.8668H117.661C117.392 25.8668 117.251 25.8129 117.079 25.6404ZM117.047 19.8959L113.479 16.3284C113.307 16.156 113.253 15.9835 113.253 15.7572V5.96016C113.253 5.75538 113.393 5.61527 113.598 5.61527H115.699C115.904 5.61527 116.044 5.75538 116.044 5.96016V16.4793C116.044 17.029 116.357 17.3415 116.907 17.3415H122.457C122.921 17.3415 123.093 17.7726 122.748 18.1175L120.97 19.8959C120.797 20.0683 120.625 20.1222 120.399 20.1222H117.64C117.392 20.1222 117.219 20.0683 117.047 19.8959Z" fill="url(#paint13_radial_10913_143080)"/>
<path d="M144.143 9.98028V15.7572C144.143 16.0158 144.089 16.156 143.916 16.3284L140.349 19.8959C140.177 20.0683 140.004 20.1222 139.778 20.1222H135.467C135.208 20.1222 135.068 20.0683 134.895 19.8959L133.29 18.29V25.5326C133.29 25.7374 133.149 25.8775 132.945 25.8775H130.843C130.638 25.8775 130.498 25.7374 130.498 25.5326V5.94938C130.498 5.7446 130.638 5.60449 130.843 5.60449H132.945C133.149 5.60449 133.29 5.7446 133.29 5.94938V16.5224C133.29 17.1799 133.581 17.3307 134.152 17.3307H140.5C141.05 17.3307 141.362 17.0182 141.362 16.4685V9.25817C141.362 8.7085 141.05 8.39594 140.5 8.39594H134.206C133.742 8.39594 133.57 7.96483 133.915 7.61994L135.693 5.8416C135.865 5.66916 136.038 5.61527 136.264 5.61527H139.767C139.993 5.61527 140.166 5.66916 140.338 5.8416L143.906 9.40906C144.089 9.57072 144.143 9.72161 144.143 9.98028Z" fill="url(#paint14_radial_10913_143080)"/>
<path d="M157.97 16.2421L154.349 19.8957C154.176 20.0682 154.036 20.1221 153.778 20.1221H152.624C152.366 20.1221 152.226 20.0682 152.053 19.8957L148.486 16.3283C148.281 16.1235 148.227 15.9834 148.227 15.757V8.39581H146.362C146.158 8.39581 146.018 8.2557 146.018 8.05092V5.94925C146.018 5.74447 146.158 5.60436 146.362 5.60436H148.227V2.29557C148.227 2.09079 148.367 1.95068 148.572 1.95068H150.674C150.878 1.95068 151.018 2.09079 151.018 2.29557V16.4684C151.018 17.0181 151.331 17.3306 151.881 17.3306H153.055L156.041 14.3452C156.181 14.205 156.386 14.205 156.526 14.3452L157.959 15.757C158.11 15.8972 158.11 16.1019 157.97 16.2421ZM151.644 7.61981L153.422 5.84147C153.594 5.66903 153.767 5.61514 153.993 5.61514H157.356C157.561 5.61514 157.701 5.75525 157.701 5.96003V8.05092C157.701 8.2557 157.561 8.39581 157.356 8.39581H151.935C151.471 8.39581 151.299 7.9647 151.644 7.61981Z" fill="url(#paint15_radial_10913_143080)"/>
<path d="M163.316 19.8958L159.749 16.3284C159.576 16.1559 159.522 15.9835 159.522 15.7571V9.98024C159.522 9.75391 159.576 9.58147 159.749 9.40902L163.316 5.84157C163.489 5.66912 163.661 5.61523 163.887 5.61523H168.802C169.028 5.61523 169.201 5.66912 169.373 5.84157L172.941 9.40902C173.113 9.58147 173.167 9.72158 173.167 9.98024V15.6709C173.167 15.9296 173.081 16.0697 172.908 16.2421L169.255 19.8958C169.082 20.0683 168.91 20.1222 168.684 20.1222H163.887C163.661 20.1222 163.489 20.0683 163.316 19.8958ZM167.994 17.3307L170.376 14.8841V9.24736C170.376 8.69769 170.063 8.38513 169.513 8.38513H163.165C162.616 8.38513 162.303 8.69769 162.303 9.24736V16.4577C162.303 17.0074 162.616 17.3199 163.165 17.3199H167.994V17.3307Z" fill="url(#paint16_radial_10913_143080)"/>
<defs>
<radialGradient id="paint0_radial_10913_143080" cx="0" cy="0" r="1" gradientUnits="userSpaceOnUse" gradientTransform="translate(289.455 25.6241) scale(106.92 106.92)">
<stop stop-color="#F8AA15"/>
<stop offset="0.1" stop-color="#FF5094"/>
<stop offset="0.32" stop-color="#B0B8FF"/>
<stop offset="0.64" stop-color="#B0B8FF"/>
<stop offset="1" stop-color="white"/>
</radialGradient>
<radialGradient id="paint1_radial_10913_143080" cx="0" cy="0" r="1" gradientUnits="userSpaceOnUse" gradientTransform="translate(289.455 25.624) scale(106.92 106.92)">
<stop stop-color="#F8AA15"/>
<stop offset="0.1" stop-color="#FF5094"/>
<stop offset="0.32" stop-color="#B0B8FF"/>
<stop offset="0.64" stop-color="#B0B8FF"/>
<stop offset="1" stop-color="white"/>
</radialGradient>
<radialGradient id="paint2_radial_10913_143080" cx="0" cy="0" r="1" gradientUnits="userSpaceOnUse" gradientTransform="translate(289.455 25.6241) scale(106.92 106.92)">
<stop stop-color="#F8AA15"/>
<stop offset="0.1" stop-color="#FF5094"/>
<stop offset="0.32" stop-color="#B0B8FF"/>
<stop offset="0.64" stop-color="#B0B8FF"/>
<stop offset="1" stop-color="white"/>
</radialGradient>
<radialGradient id="paint3_radial_10913_143080" cx="0" cy="0" r="1" gradientUnits="userSpaceOnUse" gradientTransform="translate(289.455 25.6241) scale(106.92 106.92)">
<stop stop-color="#F8AA15"/>
<stop offset="0.1" stop-color="#FF5094"/>
<stop offset="0.32" stop-color="#B0B8FF"/>
<stop offset="0.64" stop-color="#B0B8FF"/>
<stop offset="1" stop-color="white"/>
</radialGradient>
<radialGradient id="paint4_radial_10913_143080" cx="0" cy="0" r="1" gradientUnits="userSpaceOnUse" gradientTransform="translate(188.189 21.1074) scale(24.5085 24.5085)">
<stop stop-color="#F8AA15"/>
<stop offset="0.1" stop-color="#FF5094"/>
<stop offset="0.32" stop-color="#B0B8FF"/>
<stop offset="0.64" stop-color="#B0B8FF"/>
<stop offset="1" stop-color="white"/>
</radialGradient>
<radialGradient id="paint5_radial_10913_143080" cx="0" cy="0" r="1" gradientUnits="userSpaceOnUse" gradientTransform="translate(188.256 22.3224) scale(22.2305 22.2305)">
<stop stop-color="#F8AA15"/>
<stop offset="0.1" stop-color="#FF5094"/>
<stop offset="0.32" stop-color="#B0B8FF"/>
<stop offset="0.64" stop-color="#B0B8FF"/>
<stop offset="1" stop-color="white"/>
</radialGradient>
<radialGradient id="paint6_radial_10913_143080" cx="0" cy="0" r="1" gradientUnits="userSpaceOnUse" gradientTransform="translate(86.5147 25.7162) scale(107.053 107.074)">
<stop stop-color="#F8AA15"/>
<stop offset="0.1" stop-color="#FF5094"/>
<stop offset="0.32" stop-color="#B0B8FF"/>
<stop offset="0.64" stop-color="#B0B8FF"/>
<stop offset="1" stop-color="white"/>
</radialGradient>
<radialGradient id="paint7_radial_10913_143080" cx="0" cy="0" r="1" gradientUnits="userSpaceOnUse" gradientTransform="translate(86.5152 25.7162) scale(107.053 107.074)">
<stop stop-color="#F8AA15"/>
<stop offset="0.1" stop-color="#FF5094"/>
<stop offset="0.32" stop-color="#B0B8FF"/>
<stop offset="0.64" stop-color="#B0B8FF"/>
<stop offset="1" stop-color="white"/>
</radialGradient>
<radialGradient id="paint8_radial_10913_143080" cx="0" cy="0" r="1" gradientUnits="userSpaceOnUse" gradientTransform="translate(86.5148 25.7162) scale(107.053 107.074)">
<stop stop-color="#F8AA15"/>
<stop offset="0.1" stop-color="#FF5094"/>
<stop offset="0.32" stop-color="#B0B8FF"/>
<stop offset="0.64" stop-color="#B0B8FF"/>
<stop offset="1" stop-color="white"/>
</radialGradient>
<radialGradient id="paint9_radial_10913_143080" cx="0" cy="0" r="1" gradientUnits="userSpaceOnUse" gradientTransform="translate(86.5144 25.7162) scale(107.053 107.074)">
<stop stop-color="#F8AA15"/>
<stop offset="0.1" stop-color="#FF5094"/>
<stop offset="0.32" stop-color="#B0B8FF"/>
<stop offset="0.64" stop-color="#B0B8FF"/>
<stop offset="1" stop-color="white"/>
</radialGradient>
<radialGradient id="paint10_radial_10913_143080" cx="0" cy="0" r="1" gradientUnits="userSpaceOnUse" gradientTransform="translate(86.5145 25.7162) scale(107.053 107.074)">
<stop stop-color="#F8AA15"/>
<stop offset="0.1" stop-color="#FF5094"/>
<stop offset="0.32" stop-color="#B0B8FF"/>
<stop offset="0.64" stop-color="#B0B8FF"/>
<stop offset="1" stop-color="white"/>
</radialGradient>
<radialGradient id="paint11_radial_10913_143080" cx="0" cy="0" r="1" gradientUnits="userSpaceOnUse" gradientTransform="translate(86.5142 25.7162) scale(107.053 107.074)">
<stop stop-color="#F8AA15"/>
<stop offset="0.1" stop-color="#FF5094"/>
<stop offset="0.32" stop-color="#B0B8FF"/>
<stop offset="0.64" stop-color="#B0B8FF"/>
<stop offset="1" stop-color="white"/>
</radialGradient>
<radialGradient id="paint12_radial_10913_143080" cx="0" cy="0" r="1" gradientUnits="userSpaceOnUse" gradientTransform="translate(86.5147 25.7162) scale(107.053 107.074)">
<stop stop-color="#F8AA15"/>
<stop offset="0.1" stop-color="#FF5094"/>
<stop offset="0.32" stop-color="#B0B8FF"/>
<stop offset="0.64" stop-color="#B0B8FF"/>
<stop offset="1" stop-color="white"/>
</radialGradient>
<radialGradient id="paint13_radial_10913_143080" cx="0" cy="0" r="1" gradientUnits="userSpaceOnUse" gradientTransform="translate(86.5145 25.7162) scale(107.053 107.074)">
<stop stop-color="#F8AA15"/>
<stop offset="0.1" stop-color="#FF5094"/>
<stop offset="0.32" stop-color="#B0B8FF"/>
<stop offset="0.64" stop-color="#B0B8FF"/>
<stop offset="1" stop-color="white"/>
</radialGradient>
<radialGradient id="paint14_radial_10913_143080" cx="0" cy="0" r="1" gradientUnits="userSpaceOnUse" gradientTransform="translate(86.5151 25.7162) scale(107.053 107.074)">
<stop stop-color="#F8AA15"/>
<stop offset="0.1" stop-color="#FF5094"/>
<stop offset="0.32" stop-color="#B0B8FF"/>
<stop offset="0.64" stop-color="#B0B8FF"/>
<stop offset="1" stop-color="white"/>
</radialGradient>
<radialGradient id="paint15_radial_10913_143080" cx="0" cy="0" r="1" gradientUnits="userSpaceOnUse" gradientTransform="translate(86.5146 25.7161) scale(107.053 107.074)">
<stop stop-color="#F8AA15"/>
<stop offset="0.1" stop-color="#FF5094"/>
<stop offset="0.32" stop-color="#B0B8FF"/>
<stop offset="0.64" stop-color="#B0B8FF"/>
<stop offset="1" stop-color="white"/>
</radialGradient>
<radialGradient id="paint16_radial_10913_143080" cx="0" cy="0" r="1" gradientUnits="userSpaceOnUse" gradientTransform="translate(86.5149 25.7162) scale(107.053 107.074)">
<stop stop-color="#F8AA15"/>
<stop offset="0.1" stop-color="#FF5094"/>
<stop offset="0.32" stop-color="#B0B8FF"/>
<stop offset="0.64" stop-color="#B0B8FF"/>
<stop offset="1" stop-color="white"/>
</radialGradient>
</defs>
</svg>
