<svg width="141" height="141" viewBox="0 0 141 141" fill="none" xmlns="http://www.w3.org/2000/svg">
<rect x="0.892299" y="0.930842" width="139.407" height="139.407" rx="11.5732" fill="white"/>
<rect x="0.892299" y="0.930842" width="139.407" height="139.407" rx="11.5732" stroke="#C4C4C4" stroke-width="0.593496"/>
<path d="M9.55556 9.59409H13.7652V13.8037H9.55556V9.59409ZM13.7652 9.59409H17.9749V13.8037H13.7652V9.59409ZM17.9749 9.59409H22.1845V13.8037H17.9749V9.59409ZM22.1845 9.59409H26.3942V13.8037H22.1845V9.59409ZM26.3942 9.59409H30.6038V13.8037H26.3942V9.59409ZM30.6038 9.59409H34.8135V13.8037H30.6038V9.59409ZM34.8135 9.59409H39.0231V13.8037H34.8135V9.59409ZM47.4425 9.59409H51.6521V13.8037H47.4425V9.59409ZM51.6521 9.59409H55.8618V13.8037H51.6521V9.59409ZM60.0714 9.59409H64.2811V13.8037H60.0714V9.59409ZM68.4907 9.59409H72.7004V13.8037H68.4907V9.59409ZM85.3294 9.59409H89.539V13.8037H85.3294V9.59409ZM89.539 9.59409H93.7487V13.8037H89.539V9.59409ZM93.7487 9.59409H97.9583V13.8037H93.7487V9.59409ZM102.168 9.59409H106.378V13.8037H102.168V9.59409ZM106.378 9.59409H110.587V13.8037H106.378V9.59409ZM110.587 9.59409H114.797V13.8037H110.587V9.59409ZM114.797 9.59409H119.007V13.8037H114.797V9.59409ZM119.007 9.59409H123.216V13.8037H119.007V9.59409ZM123.216 9.59409H127.426V13.8037H123.216V9.59409ZM127.426 9.59409H131.636V13.8037H127.426V9.59409ZM9.55556 13.8037H13.7652V18.0134H9.55556V13.8037ZM34.8135 13.8037H39.0231V18.0134H34.8135V13.8037ZM43.2328 13.8037H47.4425V18.0134H43.2328V13.8037ZM51.6521 13.8037H55.8618V18.0134H51.6521V13.8037ZM55.8618 13.8037H60.0714V18.0134H55.8618V13.8037ZM68.4907 13.8037H72.7004V18.0134H68.4907V13.8037ZM72.7004 13.8037H76.91V18.0134H72.7004V13.8037ZM81.1197 13.8037H85.3294V18.0134H81.1197V13.8037ZM89.539 13.8037H93.7487V18.0134H89.539V13.8037ZM93.7487 13.8037H97.9583V18.0134H93.7487V13.8037ZM102.168 13.8037H106.378V18.0134H102.168V13.8037ZM127.426 13.8037H131.636V18.0134H127.426V13.8037ZM9.55556 18.0134H13.7652V22.2231H9.55556V18.0134ZM17.9749 18.0134H22.1845V22.2231H17.9749V18.0134ZM22.1845 18.0134H26.3942V22.2231H22.1845V18.0134ZM26.3942 18.0134H30.6038V22.2231H26.3942V18.0134ZM34.8135 18.0134H39.0231V22.2231H34.8135V18.0134ZM47.4425 18.0134H51.6521V22.2231H47.4425V18.0134ZM51.6521 18.0134H55.8618V22.2231H51.6521V18.0134ZM68.4907 18.0134H72.7004V22.2231H68.4907V18.0134ZM76.91 18.0134H81.1197V22.2231H76.91V18.0134ZM85.3294 18.0134H89.539V22.2231H85.3294V18.0134ZM89.539 18.0134H93.7487V22.2231H89.539V18.0134ZM102.168 18.0134H106.378V22.2231H102.168V18.0134ZM110.587 18.0134H114.797V22.2231H110.587V18.0134ZM114.797 18.0134H119.007V22.2231H114.797V18.0134ZM119.007 18.0134H123.216V22.2231H119.007V18.0134ZM127.426 18.0134H131.636V22.2231H127.426V18.0134ZM9.55556 22.2231H13.7652V26.4327H9.55556V22.2231ZM17.9749 22.2231H22.1845V26.4327H17.9749V22.2231ZM22.1845 22.2231H26.3942V26.4327H22.1845V22.2231ZM26.3942 22.2231H30.6038V26.4327H26.3942V22.2231ZM34.8135 22.2231H39.0231V26.4327H34.8135V22.2231ZM43.2328 22.2231H47.4425V26.4327H43.2328V22.2231ZM55.8618 22.2231H60.0714V26.4327H55.8618V22.2231ZM60.0714 22.2231H64.2811V26.4327H60.0714V22.2231ZM68.4907 22.2231H72.7004V26.4327H68.4907V22.2231ZM72.7004 22.2231H76.91V26.4327H72.7004V22.2231ZM81.1197 22.2231H85.3294V26.4327H81.1197V22.2231ZM93.7487 22.2231H97.9583V26.4327H93.7487V22.2231ZM102.168 22.2231H106.378V26.4327H102.168V22.2231ZM110.587 22.2231H114.797V26.4327H110.587V22.2231ZM114.797 22.2231H119.007V26.4327H114.797V22.2231ZM119.007 22.2231H123.216V26.4327H119.007V22.2231ZM127.426 22.2231H131.636V26.4327H127.426V22.2231ZM9.55556 26.4327H13.7652V30.6424H9.55556V26.4327ZM17.9749 26.4327H22.1845V30.6424H17.9749V26.4327ZM22.1845 26.4327H26.3942V30.6424H22.1845V26.4327ZM26.3942 26.4327H30.6038V30.6424H26.3942V26.4327ZM34.8135 26.4327H39.0231V30.6424H34.8135V26.4327ZM43.2328 26.4327H47.4425V30.6424H43.2328V26.4327ZM68.4907 26.4327H72.7004V30.6424H68.4907V26.4327ZM72.7004 26.4327H76.91V30.6424H72.7004V26.4327ZM85.3294 26.4327H89.539V30.6424H85.3294V26.4327ZM89.539 26.4327H93.7487V30.6424H89.539V26.4327ZM102.168 26.4327H106.378V30.6424H102.168V26.4327ZM110.587 26.4327H114.797V30.6424H110.587V26.4327ZM114.797 26.4327H119.007V30.6424H114.797V26.4327ZM119.007 26.4327H123.216V30.6424H119.007V26.4327ZM127.426 26.4327H131.636V30.6424H127.426V26.4327ZM9.55556 30.6424H13.7652V34.852H9.55556V30.6424ZM34.8135 30.6424H39.0231V34.852H34.8135V30.6424ZM47.4425 30.6424H51.6521V34.852H47.4425V30.6424ZM55.8618 30.6424H60.0714V34.852H55.8618V30.6424ZM64.2811 30.6424H68.4907V34.852H64.2811V30.6424ZM72.7004 30.6424H76.91V34.852H72.7004V30.6424ZM93.7487 30.6424H97.9583V34.852H93.7487V30.6424ZM102.168 30.6424H106.378V34.852H102.168V30.6424ZM127.426 30.6424H131.636V34.852H127.426V30.6424ZM9.55556 34.852H13.7652V39.0617H9.55556V34.852ZM13.7652 34.852H17.9749V39.0617H13.7652V34.852ZM17.9749 34.852H22.1845V39.0617H17.9749V34.852ZM22.1845 34.852H26.3942V39.0617H22.1845V34.852ZM26.3942 34.852H30.6038V39.0617H26.3942V34.852ZM30.6038 34.852H34.8135V39.0617H30.6038V34.852ZM34.8135 34.852H39.0231V39.0617H34.8135V34.852ZM43.2328 34.852H47.4425V39.0617H43.2328V34.852ZM51.6521 34.852H55.8618V39.0617H51.6521V34.852ZM60.0714 34.852H64.2811V39.0617H60.0714V34.852ZM68.4907 34.852H72.7004V39.0617H68.4907V34.852ZM76.91 34.852H81.1197V39.0617H76.91V34.852ZM85.3294 34.852H89.539V39.0617H85.3294V34.852ZM93.7487 34.852H97.9583V39.0617H93.7487V34.852ZM102.168 34.852H106.378V39.0617H102.168V34.852ZM106.378 34.852H110.587V39.0617H106.378V34.852ZM110.587 34.852H114.797V39.0617H110.587V34.852ZM114.797 34.852H119.007V39.0617H114.797V34.852ZM119.007 34.852H123.216V39.0617H119.007V34.852ZM123.216 34.852H127.426V39.0617H123.216V34.852ZM127.426 34.852H131.636V39.0617H127.426V34.852ZM43.2328 39.0617H47.4425V43.2713H43.2328V39.0617ZM60.0714 39.0617H64.2811V43.2713H60.0714V39.0617ZM64.2811 39.0617H68.4907V43.2713H64.2811V39.0617ZM68.4907 39.0617H72.7004V43.2713H68.4907V39.0617ZM76.91 39.0617H81.1197V43.2713H76.91V39.0617ZM81.1197 39.0617H85.3294V43.2713H81.1197V39.0617ZM85.3294 39.0617H89.539V43.2713H85.3294V39.0617ZM13.7652 43.2713H17.9749V47.481H13.7652V43.2713ZM22.1845 43.2713H26.3942V47.481H22.1845V43.2713ZM26.3942 43.2713H30.6038V47.481H26.3942V43.2713ZM30.6038 43.2713H34.8135V47.481H30.6038V43.2713ZM34.8135 43.2713H39.0231V47.481H34.8135V43.2713ZM43.2328 43.2713H47.4425V47.481H43.2328V43.2713ZM51.6521 43.2713H55.8618V47.481H51.6521V43.2713ZM55.8618 43.2713H60.0714V47.481H55.8618V43.2713ZM60.0714 43.2713H64.2811V47.481H60.0714V43.2713ZM68.4907 43.2713H72.7004V47.481H68.4907V43.2713ZM72.7004 43.2713H76.91V47.481H72.7004V43.2713ZM93.7487 43.2713H97.9583V47.481H93.7487V43.2713ZM97.9583 43.2713H102.168V47.481H97.9583V43.2713ZM102.168 43.2713H106.378V47.481H102.168V43.2713ZM110.587 43.2713H114.797V47.481H110.587V43.2713ZM114.797 43.2713H119.007V47.481H114.797V43.2713ZM123.216 43.2713H127.426V47.481H123.216V43.2713ZM9.55556 47.481H13.7652V51.6906H9.55556V47.481ZM13.7652 47.481H17.9749V51.6906H13.7652V47.481ZM17.9749 47.481H22.1845V51.6906H17.9749V47.481ZM26.3942 47.481H30.6038V51.6906H26.3942V47.481ZM39.0231 47.481H43.2328V51.6906H39.0231V47.481ZM43.2328 47.481H47.4425V51.6906H43.2328V47.481ZM47.4425 47.481H51.6521V51.6906H47.4425V47.481ZM60.0714 47.481H64.2811V51.6906H60.0714V47.481ZM68.4907 47.481H72.7004V51.6906H68.4907V47.481ZM85.3294 47.481H89.539V51.6906H85.3294V47.481ZM89.539 47.481H93.7487V51.6906H89.539V47.481ZM106.378 47.481H110.587V51.6906H106.378V47.481ZM110.587 47.481H114.797V51.6906H110.587V47.481ZM114.797 47.481H119.007V51.6906H114.797V47.481ZM119.007 47.481H123.216V51.6906H119.007V47.481ZM123.216 47.481H127.426V51.6906H123.216V47.481ZM13.7652 51.6906H17.9749V55.9003H13.7652V51.6906ZM22.1845 51.6906H26.3942V55.9003H22.1845V51.6906ZM26.3942 51.6906H30.6038V55.9003H26.3942V51.6906ZM34.8135 51.6906H39.0231V55.9003H34.8135V51.6906ZM43.2328 51.6906H47.4425V55.9003H43.2328V51.6906ZM55.8618 51.6906H60.0714V55.9003H55.8618V51.6906ZM64.2811 51.6906H68.4907V55.9003H64.2811V51.6906ZM76.91 51.6906H81.1197V55.9003H76.91V51.6906ZM81.1197 51.6906H85.3294V55.9003H81.1197V51.6906ZM93.7487 51.6906H97.9583V55.9003H93.7487V51.6906ZM97.9583 51.6906H102.168V55.9003H97.9583V51.6906ZM102.168 51.6906H106.378V55.9003H102.168V51.6906ZM119.007 51.6906H123.216V55.9003H119.007V51.6906ZM26.3942 55.9003H30.6038V60.1099H26.3942V55.9003ZM39.0231 55.9003H43.2328V60.1099H39.0231V55.9003ZM43.2328 55.9003H47.4425V60.1099H43.2328V55.9003ZM55.8618 55.9003H60.0714V60.1099H55.8618V55.9003ZM64.2811 55.9003H68.4907V60.1099H64.2811V55.9003ZM76.91 55.9003H81.1197V60.1099H76.91V55.9003ZM81.1197 55.9003H85.3294V60.1099H81.1197V55.9003ZM85.3294 55.9003H89.539V60.1099H85.3294V55.9003ZM114.797 55.9003H119.007V60.1099H114.797V55.9003ZM127.426 55.9003H131.636V60.1099H127.426V55.9003ZM9.55556 60.1099H13.7652V64.3196H9.55556V60.1099ZM17.9749 60.1099H22.1845V64.3196H17.9749V60.1099ZM22.1845 60.1099H26.3942V64.3196H22.1845V60.1099ZM30.6038 60.1099H34.8135V64.3196H30.6038V60.1099ZM34.8135 60.1099H39.0231V64.3196H34.8135V60.1099ZM43.2328 60.1099H47.4425V64.3196H43.2328V60.1099ZM55.8618 60.1099H60.0714V64.3196H55.8618V60.1099ZM64.2811 60.1099H68.4907V64.3196H64.2811V60.1099ZM68.4907 60.1099H72.7004V64.3196H68.4907V60.1099ZM76.91 60.1099H81.1197V64.3196H76.91V60.1099ZM89.539 60.1099H93.7487V64.3196H89.539V60.1099ZM93.7487 60.1099H97.9583V64.3196H93.7487V60.1099ZM97.9583 60.1099H102.168V64.3196H97.9583V60.1099ZM102.168 60.1099H106.378V64.3196H102.168V60.1099ZM114.797 60.1099H119.007V64.3196H114.797V60.1099ZM123.216 60.1099H127.426V64.3196H123.216V60.1099ZM9.55556 64.3196H13.7652V68.5293H9.55556V64.3196ZM13.7652 64.3196H17.9749V68.5293H13.7652V64.3196ZM17.9749 64.3196H22.1845V68.5293H17.9749V64.3196ZM22.1845 64.3196H26.3942V68.5293H22.1845V64.3196ZM26.3942 64.3196H30.6038V68.5293H26.3942V64.3196ZM43.2328 64.3196H47.4425V68.5293H43.2328V64.3196ZM47.4425 64.3196H51.6521V68.5293H47.4425V64.3196ZM64.2811 64.3196H68.4907V68.5293H64.2811V64.3196ZM72.7004 64.3196H76.91V68.5293H72.7004V64.3196ZM85.3294 64.3196H89.539V68.5293H85.3294V64.3196ZM102.168 64.3196H106.378V68.5293H102.168V64.3196ZM110.587 64.3196H114.797V68.5293H110.587V64.3196ZM119.007 64.3196H123.216V68.5293H119.007V64.3196ZM123.216 64.3196H127.426V68.5293H123.216V64.3196ZM127.426 64.3196H131.636V68.5293H127.426V64.3196ZM9.55556 68.5293H13.7652V72.7389H9.55556V68.5293ZM13.7652 68.5293H17.9749V72.7389H13.7652V68.5293ZM22.1845 68.5293H26.3942V72.7389H22.1845V68.5293ZM26.3942 68.5293H30.6038V72.7389H26.3942V68.5293ZM34.8135 68.5293H39.0231V72.7389H34.8135V68.5293ZM39.0231 68.5293H43.2328V72.7389H39.0231V68.5293ZM55.8618 68.5293H60.0714V72.7389H55.8618V68.5293ZM64.2811 68.5293H68.4907V72.7389H64.2811V68.5293ZM68.4907 68.5293H72.7004V72.7389H68.4907V68.5293ZM85.3294 68.5293H89.539V72.7389H85.3294V68.5293ZM89.539 68.5293H93.7487V72.7389H89.539V68.5293ZM106.378 68.5293H110.587V72.7389H106.378V68.5293ZM114.797 68.5293H119.007V72.7389H114.797V68.5293ZM127.426 68.5293H131.636V72.7389H127.426V68.5293ZM9.55556 72.7389H13.7652V76.9486H9.55556V72.7389ZM22.1845 72.7389H26.3942V76.9486H22.1845V72.7389ZM30.6038 72.7389H34.8135V76.9486H30.6038V72.7389ZM47.4425 72.7389H51.6521V76.9486H47.4425V72.7389ZM51.6521 72.7389H55.8618V76.9486H51.6521V72.7389ZM76.91 72.7389H81.1197V76.9486H76.91V72.7389ZM89.539 72.7389H93.7487V76.9486H89.539V72.7389ZM93.7487 72.7389H97.9583V76.9486H93.7487V72.7389ZM97.9583 72.7389H102.168V76.9486H97.9583V72.7389ZM102.168 72.7389H106.378V76.9486H102.168V72.7389ZM110.587 72.7389H114.797V76.9486H110.587V72.7389ZM114.797 72.7389H119.007V76.9486H114.797V72.7389ZM119.007 72.7389H123.216V76.9486H119.007V72.7389ZM127.426 72.7389H131.636V76.9486H127.426V72.7389ZM9.55556 76.9486H13.7652V81.1582H9.55556V76.9486ZM17.9749 76.9486H22.1845V81.1582H17.9749V76.9486ZM34.8135 76.9486H39.0231V81.1582H34.8135V76.9486ZM43.2328 76.9486H47.4425V81.1582H43.2328V76.9486ZM47.4425 76.9486H51.6521V81.1582H47.4425V76.9486ZM51.6521 76.9486H55.8618V81.1582H51.6521V76.9486ZM55.8618 76.9486H60.0714V81.1582H55.8618V76.9486ZM64.2811 76.9486H68.4907V81.1582H64.2811V76.9486ZM68.4907 76.9486H72.7004V81.1582H68.4907V76.9486ZM81.1197 76.9486H85.3294V81.1582H81.1197V76.9486ZM85.3294 76.9486H89.539V81.1582H85.3294V76.9486ZM89.539 76.9486H93.7487V81.1582H89.539V76.9486ZM97.9583 76.9486H102.168V81.1582H97.9583V76.9486ZM106.378 76.9486H110.587V81.1582H106.378V76.9486ZM114.797 76.9486H119.007V81.1582H114.797V76.9486ZM123.216 76.9486H127.426V81.1582H123.216V76.9486ZM9.55556 81.1582H13.7652V85.3679H9.55556V81.1582ZM13.7652 81.1582H17.9749V85.3679H13.7652V81.1582ZM17.9749 81.1582H22.1845V85.3679H17.9749V81.1582ZM30.6038 81.1582H34.8135V85.3679H30.6038V81.1582ZM39.0231 81.1582H43.2328V85.3679H39.0231V81.1582ZM47.4425 81.1582H51.6521V85.3679H47.4425V81.1582ZM51.6521 81.1582H55.8618V85.3679H51.6521V81.1582ZM60.0714 81.1582H64.2811V85.3679H60.0714V81.1582ZM64.2811 81.1582H68.4907V85.3679H64.2811V81.1582ZM68.4907 81.1582H72.7004V85.3679H68.4907V81.1582ZM81.1197 81.1582H85.3294V85.3679H81.1197V81.1582ZM89.539 81.1582H93.7487V85.3679H89.539V81.1582ZM93.7487 81.1582H97.9583V85.3679H93.7487V81.1582ZM110.587 81.1582H114.797V85.3679H110.587V81.1582ZM114.797 81.1582H119.007V85.3679H114.797V81.1582ZM119.007 81.1582H123.216V85.3679H119.007V81.1582ZM9.55556 85.3679H13.7652V89.5775H9.55556V85.3679ZM13.7652 85.3679H17.9749V89.5775H13.7652V85.3679ZM17.9749 85.3679H22.1845V89.5775H17.9749V85.3679ZM22.1845 85.3679H26.3942V89.5775H22.1845V85.3679ZM26.3942 85.3679H30.6038V89.5775H26.3942V85.3679ZM30.6038 85.3679H34.8135V89.5775H30.6038V85.3679ZM34.8135 85.3679H39.0231V89.5775H34.8135V85.3679ZM39.0231 85.3679H43.2328V89.5775H39.0231V85.3679ZM47.4425 85.3679H51.6521V89.5775H47.4425V85.3679ZM55.8618 85.3679H60.0714V89.5775H55.8618V85.3679ZM76.91 85.3679H81.1197V89.5775H76.91V85.3679ZM81.1197 85.3679H85.3294V89.5775H81.1197V85.3679ZM85.3294 85.3679H89.539V89.5775H85.3294V85.3679ZM89.539 85.3679H93.7487V89.5775H89.539V85.3679ZM127.426 85.3679H131.636V89.5775H127.426V85.3679ZM9.55556 89.5775H13.7652V93.7872H9.55556V89.5775ZM13.7652 89.5775H17.9749V93.7872H13.7652V89.5775ZM22.1845 89.5775H26.3942V93.7872H22.1845V89.5775ZM26.3942 89.5775H30.6038V93.7872H26.3942V89.5775ZM30.6038 89.5775H34.8135V93.7872H30.6038V89.5775ZM39.0231 89.5775H43.2328V93.7872H39.0231V89.5775ZM51.6521 89.5775H55.8618V93.7872H51.6521V89.5775ZM64.2811 89.5775H68.4907V93.7872H64.2811V89.5775ZM72.7004 89.5775H76.91V93.7872H72.7004V89.5775ZM76.91 89.5775H81.1197V93.7872H76.91V89.5775ZM89.539 89.5775H93.7487V93.7872H89.539V89.5775ZM93.7487 89.5775H97.9583V93.7872H93.7487V89.5775ZM97.9583 89.5775H102.168V93.7872H97.9583V89.5775ZM102.168 89.5775H106.378V93.7872H102.168V89.5775ZM110.587 89.5775H114.797V93.7872H110.587V89.5775ZM114.797 89.5775H119.007V93.7872H114.797V89.5775ZM119.007 89.5775H123.216V93.7872H119.007V89.5775ZM123.216 89.5775H127.426V93.7872H123.216V89.5775ZM127.426 89.5775H131.636V93.7872H127.426V89.5775ZM9.55556 93.7872H13.7652V97.9968H9.55556V93.7872ZM13.7652 93.7872H17.9749V97.9968H13.7652V93.7872ZM17.9749 93.7872H22.1845V97.9968H17.9749V93.7872ZM22.1845 93.7872H26.3942V97.9968H22.1845V93.7872ZM34.8135 93.7872H39.0231V97.9968H34.8135V93.7872ZM39.0231 93.7872H43.2328V97.9968H39.0231V93.7872ZM55.8618 93.7872H60.0714V97.9968H55.8618V93.7872ZM60.0714 93.7872H64.2811V97.9968H60.0714V93.7872ZM64.2811 93.7872H68.4907V97.9968H64.2811V93.7872ZM81.1197 93.7872H85.3294V97.9968H81.1197V93.7872ZM89.539 93.7872H93.7487V97.9968H89.539V93.7872ZM93.7487 93.7872H97.9583V97.9968H93.7487V93.7872ZM97.9583 93.7872H102.168V97.9968H97.9583V93.7872ZM102.168 93.7872H106.378V97.9968H102.168V93.7872ZM106.378 93.7872H110.587V97.9968H106.378V93.7872ZM110.587 93.7872H114.797V97.9968H110.587V93.7872ZM114.797 93.7872H119.007V97.9968H114.797V93.7872ZM119.007 93.7872H123.216V97.9968H119.007V93.7872ZM123.216 93.7872H127.426V97.9968H123.216V93.7872ZM43.2328 97.9968H47.4425V102.206H43.2328V97.9968ZM47.4425 97.9968H51.6521V102.206H47.4425V97.9968ZM51.6521 97.9968H55.8618V102.206H51.6521V97.9968ZM55.8618 97.9968H60.0714V102.206H55.8618V97.9968ZM60.0714 97.9968H64.2811V102.206H60.0714V97.9968ZM64.2811 97.9968H68.4907V102.206H64.2811V97.9968ZM68.4907 97.9968H72.7004V102.206H68.4907V97.9968ZM72.7004 97.9968H76.91V102.206H72.7004V97.9968ZM81.1197 97.9968H85.3294V102.206H81.1197V97.9968ZM85.3294 97.9968H89.539V102.206H85.3294V97.9968ZM89.539 97.9968H93.7487V102.206H89.539V97.9968ZM93.7487 97.9968H97.9583V102.206H93.7487V97.9968ZM110.587 97.9968H114.797V102.206H110.587V97.9968ZM114.797 97.9968H119.007V102.206H114.797V97.9968ZM119.007 97.9968H123.216V102.206H119.007V97.9968ZM123.216 97.9968H127.426V102.206H123.216V97.9968ZM9.55556 102.206H13.7652V106.416H9.55556V102.206ZM13.7652 102.206H17.9749V106.416H13.7652V102.206ZM17.9749 102.206H22.1845V106.416H17.9749V102.206ZM22.1845 102.206H26.3942V106.416H22.1845V102.206ZM26.3942 102.206H30.6038V106.416H26.3942V102.206ZM30.6038 102.206H34.8135V106.416H30.6038V102.206ZM34.8135 102.206H39.0231V106.416H34.8135V102.206ZM47.4425 102.206H51.6521V106.416H47.4425V102.206ZM60.0714 102.206H64.2811V106.416H60.0714V102.206ZM64.2811 102.206H68.4907V106.416H64.2811V102.206ZM68.4907 102.206H72.7004V106.416H68.4907V102.206ZM72.7004 102.206H76.91V106.416H72.7004V102.206ZM89.539 102.206H93.7487V106.416H89.539V102.206ZM93.7487 102.206H97.9583V106.416H93.7487V102.206ZM102.168 102.206H106.378V106.416H102.168V102.206ZM110.587 102.206H114.797V106.416H110.587V102.206ZM119.007 102.206H123.216V106.416H119.007V102.206ZM9.55556 106.416H13.7652V110.626H9.55556V106.416ZM34.8135 106.416H39.0231V110.626H34.8135V106.416ZM43.2328 106.416H47.4425V110.626H43.2328V106.416ZM47.4425 106.416H51.6521V110.626H47.4425V106.416ZM68.4907 106.416H72.7004V110.626H68.4907V106.416ZM72.7004 106.416H76.91V110.626H72.7004V106.416ZM76.91 106.416H81.1197V110.626H76.91V106.416ZM85.3294 106.416H89.539V110.626H85.3294V106.416ZM89.539 106.416H93.7487V110.626H89.539V106.416ZM93.7487 106.416H97.9583V110.626H93.7487V106.416ZM110.587 106.416H114.797V110.626H110.587V106.416ZM114.797 106.416H119.007V110.626H114.797V106.416ZM123.216 106.416H127.426V110.626H123.216V106.416ZM127.426 106.416H131.636V110.626H127.426V106.416ZM9.55556 110.626H13.7652V114.835H9.55556V110.626ZM17.9749 110.626H22.1845V114.835H17.9749V110.626ZM22.1845 110.626H26.3942V114.835H22.1845V110.626ZM26.3942 110.626H30.6038V114.835H26.3942V110.626ZM34.8135 110.626H39.0231V114.835H34.8135V110.626ZM43.2328 110.626H47.4425V114.835H43.2328V110.626ZM72.7004 110.626H76.91V114.835H72.7004V110.626ZM81.1197 110.626H85.3294V114.835H81.1197V110.626ZM89.539 110.626H93.7487V114.835H89.539V110.626ZM93.7487 110.626H97.9583V114.835H93.7487V110.626ZM97.9583 110.626H102.168V114.835H97.9583V110.626ZM102.168 110.626H106.378V114.835H102.168V110.626ZM106.378 110.626H110.587V114.835H106.378V110.626ZM110.587 110.626H114.797V114.835H110.587V110.626ZM123.216 110.626H127.426V114.835H123.216V110.626ZM9.55556 114.835H13.7652V119.045H9.55556V114.835ZM17.9749 114.835H22.1845V119.045H17.9749V114.835ZM22.1845 114.835H26.3942V119.045H22.1845V114.835ZM26.3942 114.835H30.6038V119.045H26.3942V114.835ZM34.8135 114.835H39.0231V119.045H34.8135V114.835ZM43.2328 114.835H47.4425V119.045H43.2328V114.835ZM47.4425 114.835H51.6521V119.045H47.4425V114.835ZM51.6521 114.835H55.8618V119.045H51.6521V114.835ZM85.3294 114.835H89.539V119.045H85.3294V114.835ZM106.378 114.835H110.587V119.045H106.378V114.835ZM123.216 114.835H127.426V119.045H123.216V114.835ZM9.55556 119.045H13.7652V123.255H9.55556V119.045ZM17.9749 119.045H22.1845V123.255H17.9749V119.045ZM22.1845 119.045H26.3942V123.255H22.1845V119.045ZM26.3942 119.045H30.6038V123.255H26.3942V119.045ZM34.8135 119.045H39.0231V123.255H34.8135V119.045ZM47.4425 119.045H51.6521V123.255H47.4425V119.045ZM60.0714 119.045H64.2811V123.255H60.0714V119.045ZM64.2811 119.045H68.4907V123.255H64.2811V119.045ZM72.7004 119.045H76.91V123.255H72.7004V119.045ZM81.1197 119.045H85.3294V123.255H81.1197V119.045ZM85.3294 119.045H89.539V123.255H85.3294V119.045ZM93.7487 119.045H97.9583V123.255H93.7487V119.045ZM97.9583 119.045H102.168V123.255H97.9583V119.045ZM106.378 119.045H110.587V123.255H106.378V119.045ZM110.587 119.045H114.797V123.255H110.587V119.045ZM114.797 119.045H119.007V123.255H114.797V119.045ZM119.007 119.045H123.216V123.255H119.007V119.045ZM123.216 119.045H127.426V123.255H123.216V119.045ZM127.426 119.045H131.636V123.255H127.426V119.045ZM9.55556 123.255H13.7652V127.464H9.55556V123.255ZM34.8135 123.255H39.0231V127.464H34.8135V123.255ZM43.2328 123.255H47.4425V127.464H43.2328V123.255ZM47.4425 123.255H51.6521V127.464H47.4425V123.255ZM55.8618 123.255H60.0714V127.464H55.8618V123.255ZM60.0714 123.255H64.2811V127.464H60.0714V123.255ZM64.2811 123.255H68.4907V127.464H64.2811V123.255ZM68.4907 123.255H72.7004V127.464H68.4907V123.255ZM76.91 123.255H81.1197V127.464H76.91V123.255ZM97.9583 123.255H102.168V127.464H97.9583V123.255ZM110.587 123.255H114.797V127.464H110.587V123.255ZM114.797 123.255H119.007V127.464H114.797V123.255ZM119.007 123.255H123.216V127.464H119.007V123.255ZM127.426 123.255H131.636V127.464H127.426V123.255ZM9.55556 127.464H13.7652V131.674H9.55556V127.464ZM13.7652 127.464H17.9749V131.674H13.7652V127.464ZM17.9749 127.464H22.1845V131.674H17.9749V127.464ZM22.1845 127.464H26.3942V131.674H22.1845V127.464ZM26.3942 127.464H30.6038V131.674H26.3942V127.464ZM30.6038 127.464H34.8135V131.674H30.6038V127.464ZM34.8135 127.464H39.0231V131.674H34.8135V127.464ZM51.6521 127.464H55.8618V131.674H51.6521V127.464ZM55.8618 127.464H60.0714V131.674H55.8618V127.464ZM60.0714 127.464H64.2811V131.674H60.0714V127.464ZM64.2811 127.464H68.4907V131.674H64.2811V127.464ZM72.7004 127.464H76.91V131.674H72.7004V127.464ZM76.91 127.464H81.1197V131.674H76.91V127.464ZM89.539 127.464H93.7487V131.674H89.539V127.464ZM93.7487 127.464H97.9583V131.674H93.7487V127.464ZM102.168 127.464H106.378V131.674H102.168V127.464ZM106.378 127.464H110.587V131.674H106.378V127.464ZM110.587 127.464H114.797V131.674H110.587V127.464Z" fill="black"/>
</svg>
